<svg width="45" height="45" viewBox="0 0 45 45" fill="none" xmlns="http://www.w3.org/2000/svg">
<rect y="22.5" width="31.8199" height="31.8199" transform="rotate(-45 0 22.5)" fill="#CDFB7C"/>
<path d="M22.5492 26.3068V24.4735H25.2765V25.3901H28.9129V23.5568H24.3674C23.3674 23.5568 22.5492 22.7318 22.5492 21.7235V18.9735C22.5492 17.9651 23.3674 17.1401 24.3674 17.1401H29.822C30.822 17.1401 31.6401 17.9651 31.6401 18.9735V20.8068H28.9129V19.8901H25.2765V21.7235H29.822C30.822 21.7235 31.6401 22.5485 31.6401 23.5568V26.3068C31.6401 27.3151 30.822 28.1401 29.822 28.1401H24.3674C23.3674 28.1401 22.5492 27.3151 22.5492 26.3068ZM17.0947 17.1401V25.3901H14.3674V23.5568H11.6401V25.3901C11.6401 26.9118 12.8583 28.1401 14.3674 28.1401H17.0947C18.6038 28.1401 19.822 26.9118 19.822 25.3901V17.1401C19.822 17.1401 18.6038 17.1401 17.0947 17.1401Z" fill="#171C21"/>
</svg>
