<svg width="45" height="45" viewBox="0 0 45 45" fill="none" xmlns="http://www.w3.org/2000/svg">
<rect x="45" y="22.5" width="31.8199" height="31.8199" transform="rotate(135 45 22.5)" fill="#CDFB7C"/>
<path d="M17.6001 23H26.4001H17.6001Z" fill="black"/>
<path d="M17.6001 23H26.4001" stroke="#3182CE" stroke-width="1.65"/>
<path d="M23.1001 19.7002L26.4001 23.0002L23.1001 26.3002" stroke="#3182CE" stroke-width="1.65"/>
<path d="M26.2 16H17.8C16.2536 16 15 17.2536 15 18.8V27.2C15 28.7464 16.2536 30 17.8 30H26.2C27.7464 30 29 28.7464 29 27.2V18.8C29 17.2536 27.7464 16 26.2 16Z" fill="#111111"/>
<path d="M16.5618 23.4983L16.9432 23.5455C16.8831 23.7684 16.7716 23.9413 16.6089 24.0644C16.4462 24.1874 16.2384 24.2489 15.9855 24.2489C15.6669 24.2489 15.414 24.1512 15.2267 23.9557C15.0408 23.7588 14.9478 23.4833 14.9478 23.1292C14.9478 22.7628 15.0421 22.4784 15.2308 22.2761C15.4195 22.0737 15.6642 21.9726 15.965 21.9726C16.2562 21.9726 16.4941 22.0717 16.6787 22.2699C16.8632 22.4682 16.9555 22.7471 16.9555 23.1066C16.9555 23.1285 16.9548 23.1613 16.9535 23.2051H15.3292C15.3429 23.4443 15.4106 23.6275 15.5323 23.7547C15.654 23.8818 15.8057 23.9454 15.9875 23.9454C16.1229 23.9454 16.2384 23.9099 16.3341 23.8388C16.4298 23.7677 16.5057 23.6542 16.5618 23.4983ZM15.3498 22.9016H16.5659C16.5495 22.7184 16.503 22.581 16.4264 22.4894C16.3088 22.3472 16.1564 22.2761 15.9691 22.2761C15.7996 22.2761 15.6567 22.3328 15.5405 22.4463C15.4256 22.5598 15.3621 22.7115 15.3498 22.9016ZM17.1626 24.1997L17.9583 23.0677L17.2221 22.0218H17.6835L18.0178 22.5324C18.0807 22.6295 18.1313 22.7108 18.1696 22.7765C18.2297 22.6862 18.2851 22.6063 18.3357 22.5365L18.7028 22.0218H19.1437L18.3911 23.0472L19.2011 24.1997H18.7479L18.3008 23.5229L18.1819 23.3404L17.6097 24.1997H17.1626ZM19.5087 25.0344V22.0218H19.8451V22.3048C19.9244 22.194 20.0139 22.1113 20.1137 22.0566C20.2135 22.0006 20.3345 21.9726 20.4767 21.9726C20.6626 21.9726 20.8267 22.0204 20.9689 22.1161C21.1111 22.2118 21.2184 22.3472 21.2909 22.5222C21.3633 22.6958 21.3996 22.8865 21.3996 23.0943C21.3996 23.3172 21.3592 23.5182 21.2786 23.6973C21.1993 23.875 21.0831 24.0117 20.9299 24.1074C20.7782 24.2018 20.6182 24.2489 20.45 24.2489C20.327 24.2489 20.2163 24.2229 20.1178 24.171C20.0208 24.119 19.9408 24.0534 19.8779 23.9741V25.0344H19.5087ZM19.843 23.123C19.843 23.4033 19.8998 23.6104 20.0132 23.7444C20.1267 23.8784 20.2641 23.9454 20.4254 23.9454C20.5895 23.9454 20.7296 23.8764 20.8458 23.7383C20.9634 23.5988 21.0222 23.3835 21.0222 23.0923C21.0222 22.8147 20.9648 22.6069 20.85 22.4688C20.7365 22.3308 20.6004 22.2617 20.4418 22.2617C20.2846 22.2617 20.1452 22.3355 20.0235 22.4832C19.9032 22.6295 19.843 22.8428 19.843 23.123ZM21.8425 24.1997V22.0218H22.1748V22.352C22.2595 22.1975 22.3375 22.0956 22.4085 22.0464C22.481 21.9972 22.5603 21.9726 22.6464 21.9726C22.7708 21.9726 22.8973 22.0122 23.0258 22.0915L22.8987 22.434C22.8084 22.3807 22.7182 22.354 22.628 22.354C22.5473 22.354 22.4749 22.3786 22.4106 22.4278C22.3463 22.4757 22.3005 22.5427 22.2732 22.6288C22.2322 22.7601 22.2117 22.9036 22.2117 23.0595V24.1997H21.8425ZM24.7362 23.4983L25.1176 23.5455C25.0575 23.7684 24.946 23.9413 24.7833 24.0644C24.6207 24.1874 24.4128 24.2489 24.1599 24.2489C23.8414 24.2489 23.5884 24.1512 23.4011 23.9557C23.2152 23.7588 23.1222 23.4833 23.1222 23.1292C23.1222 22.7628 23.2166 22.4784 23.4052 22.2761C23.5939 22.0737 23.8386 21.9726 24.1394 21.9726C24.4306 21.9726 24.6685 22.0717 24.8531 22.2699C25.0376 22.4682 25.1299 22.7471 25.1299 23.1066C25.1299 23.1285 25.1292 23.1613 25.1279 23.2051H23.5037C23.5173 23.4443 23.585 23.6275 23.7067 23.7547C23.8284 23.8818 23.9801 23.9454 24.162 23.9454C24.2973 23.9454 24.4128 23.9099 24.5085 23.8388C24.6042 23.7677 24.6801 23.6542 24.7362 23.4983ZM23.5242 22.9016H24.7403C24.7239 22.7184 24.6774 22.581 24.6008 22.4894C24.4833 22.3472 24.3308 22.2761 24.1435 22.2761C23.974 22.2761 23.8311 22.3328 23.7149 22.4463C23.6 22.5598 23.5365 22.7115 23.5242 22.9016ZM25.4355 23.5496L25.8005 23.4922C25.821 23.6385 25.8778 23.7506 25.9708 23.8285C26.0651 23.9064 26.1963 23.9454 26.3645 23.9454C26.534 23.9454 26.6598 23.9112 26.7418 23.8429C26.8239 23.7731 26.8649 23.6918 26.8649 23.5988C26.8649 23.5154 26.8287 23.4498 26.7562 23.402C26.7056 23.3691 26.5798 23.3274 26.3789 23.2769C26.1082 23.2085 25.9202 23.1497 25.8149 23.1005C25.711 23.0499 25.6317 22.9809 25.577 22.8934C25.5237 22.8045 25.497 22.7067 25.497 22.6001C25.497 22.503 25.5189 22.4135 25.5626 22.3314C25.6078 22.248 25.6686 22.179 25.7452 22.1243C25.8026 22.0819 25.8805 22.0464 25.979 22.0177C26.0788 21.9876 26.1854 21.9726 26.2989 21.9726C26.4698 21.9726 26.6195 21.9972 26.748 22.0464C26.8779 22.0956 26.9736 22.1626 27.0351 22.2474C27.0966 22.3308 27.139 22.4429 27.1623 22.5837L26.8013 22.6329C26.7849 22.5208 26.7371 22.4333 26.6578 22.3704C26.5798 22.3075 26.4691 22.2761 26.3255 22.2761C26.156 22.2761 26.035 22.3041 25.9625 22.3602C25.8901 22.4162 25.8539 22.4818 25.8539 22.557C25.8539 22.6049 25.8689 22.6479 25.899 22.6862C25.9291 22.7259 25.9762 22.7587 26.0405 22.7847C26.0774 22.7983 26.1861 22.8298 26.3666 22.879C26.6277 22.9487 26.8095 23.0062 26.9121 23.0513C27.016 23.095 27.0973 23.1593 27.1561 23.244C27.2149 23.3288 27.2443 23.4341 27.2443 23.5599C27.2443 23.6829 27.2081 23.7991 27.1356 23.9085C27.0645 24.0165 26.9613 24.1006 26.8259 24.1607C26.6906 24.2195 26.5375 24.2489 26.3666 24.2489C26.0835 24.2489 25.8675 24.1901 25.7185 24.0726C25.5708 23.955 25.4765 23.7807 25.4355 23.5496ZM27.5355 23.5496L27.9005 23.4922C27.921 23.6385 27.9778 23.7506 28.0708 23.8285C28.1651 23.9064 28.2963 23.9454 28.4645 23.9454C28.634 23.9454 28.7598 23.9112 28.8418 23.8429C28.9239 23.7731 28.9649 23.6918 28.9649 23.5988C28.9649 23.5154 28.9287 23.4498 28.8562 23.402C28.8056 23.3691 28.6798 23.3274 28.4789 23.2769C28.2082 23.2085 28.0202 23.1497 27.9149 23.1005C27.811 23.0499 27.7317 22.9809 27.677 22.8934C27.6237 22.8045 27.597 22.7067 27.597 22.6001C27.597 22.503 27.6189 22.4135 27.6626 22.3314C27.7078 22.248 27.7686 22.179 27.8452 22.1243C27.9026 22.0819 27.9805 22.0464 28.079 22.0177C28.1788 21.9876 28.2854 21.9726 28.3989 21.9726C28.5698 21.9726 28.7195 21.9972 28.848 22.0464C28.9779 22.0956 29.0736 22.1626 29.1351 22.2474C29.1966 22.3308 29.239 22.4429 29.2623 22.5837L28.9013 22.6329C28.8849 22.5208 28.8371 22.4333 28.7578 22.3704C28.6798 22.3075 28.5691 22.2761 28.4255 22.2761C28.256 22.2761 28.135 22.3041 28.0625 22.3602C27.9901 22.4162 27.9539 22.4818 27.9539 22.557C27.9539 22.6049 27.9689 22.6479 27.999 22.6862C28.0291 22.7259 28.0762 22.7587 28.1405 22.7847C28.1774 22.7983 28.2861 22.8298 28.4666 22.879C28.7277 22.9487 28.9095 23.0062 29.0121 23.0513C29.116 23.095 29.1973 23.1593 29.2561 23.244C29.3149 23.3288 29.3443 23.4341 29.3443 23.5599C29.3443 23.6829 29.3081 23.7991 29.2356 23.9085C29.1645 24.0165 29.0613 24.1006 28.9259 24.1607C28.7906 24.2195 28.6375 24.2489 28.4666 24.2489C28.1835 24.2489 27.9675 24.1901 27.8185 24.0726C27.6709 23.955 27.5765 23.7807 27.5355 23.5496Z" fill="white"/>
</svg>
