<svg width="45" height="45" viewBox="0 0 45 45" fill="none" xmlns="http://www.w3.org/2000/svg">
<rect y="22.5" width="31.8199" height="31.8199" transform="rotate(-45 0 22.5)" fill="#CDFB7C"/>
<path d="M30.2745 22.0516C30.2669 20.1821 29.6223 18.371 28.4472 16.9169V27.1955C29.6389 25.7472 30.2855 23.9272 30.2745 22.0516ZM27.1955 28.4472H16.9169C17.6562 29.0039 18.4797 29.4389 19.3564 29.7355C20.2177 30.0666 21.1292 30.2489 22.0516 30.2745C22.9896 30.255 23.9171 30.0726 24.7926 29.7355C25.6551 29.4323 26.4656 28.9978 27.1955 28.4472ZM21.138 26.6199L17.4834 19.3107V26.6199H21.138ZM26.6199 19.3107L22.9653 26.6199H26.6199V19.3107ZM22.0516 24.3632L25.4778 17.4834H18.6254L22.0516 24.3632ZM27.1955 15.6561C25.7435 14.4741 23.9285 13.8287 22.0562 13.8287C20.1839 13.8287 18.3689 14.4741 16.9169 15.6561H27.1955ZM15.6561 27.1955V16.9169C14.4809 18.371 13.8364 20.1821 13.8287 22.0516C13.8178 23.9272 14.4644 25.7472 15.6561 27.1955ZM32.1018 22.0516C32.1247 23.3748 31.8753 24.6886 31.3692 25.9113C30.8631 27.1341 30.1111 28.2398 29.1599 29.1599C28.2398 30.1111 27.1341 30.8631 25.9113 31.3692C24.6886 31.8753 23.3748 32.1247 22.0516 32.1018C20.7286 32.1236 19.4152 31.8737 18.1926 31.3677C16.9699 30.8617 15.8641 30.1102 14.9434 29.1599C13.9922 28.2398 13.2402 27.1341 12.7341 25.9113C12.228 24.6886 11.9786 23.3748 12.0014 22.0516C11.9797 20.7286 12.2296 19.4152 12.7356 18.1926C13.2416 16.9699 13.993 15.8641 14.9434 14.9434C15.8641 13.993 16.9699 13.2416 18.1926 12.7356C19.4152 12.2296 20.7286 11.9797 22.0516 12.0014C23.3748 11.9786 24.6886 12.228 25.9113 12.7341C27.1341 13.2402 28.2398 13.9922 29.1599 14.9434C30.1102 15.8641 30.8617 16.9699 31.3677 18.1926C31.8737 19.4152 32.1236 20.7286 32.1018 22.0516Z" fill="black"/>
</svg>
