<svg width="45" height="45" viewBox="0 0 45 45" fill="none" xmlns="http://www.w3.org/2000/svg">
<rect x="45" y="22.5" width="31.8199" height="31.8199" transform="rotate(135 45 22.5)" fill="#CDFB7C"/>
<path d="M17.908 14C16.6069 14.0018 15.3595 14.5195 14.4395 15.4395C13.5195 16.3595 13.0018 17.6069 13 18.908V26.9135C13.0018 28.2145 13.5195 29.4617 14.4396 30.3815C15.3597 31.3013 16.607 31.8186 17.908 31.82H26.092C27.393 31.8186 28.6403 31.3013 29.5604 30.3815C30.4805 29.4617 30.9982 28.2145 31 26.9135V26.2902C31 25.8538 30.8266 25.4353 30.518 25.1267C30.2095 24.8181 29.7909 24.6447 29.3545 24.6447C28.9181 24.6447 28.4995 24.8181 28.191 25.1267C27.8824 25.4353 27.709 25.8538 27.709 26.2902V26.9127C27.709 27.8052 26.9837 28.5305 26.092 28.5305H17.908C17.4791 28.5301 17.0679 28.3597 16.7645 28.0565C16.4611 27.7534 16.2903 27.3424 16.2895 26.9135V18.971C16.2895 18.0785 17.0163 17.351 17.908 17.351C20.7902 17.354 23.7685 17.3442 26.617 17.3517C27.034 17.4553 27.286 17.6855 27.4105 17.9877C27.5553 18.3402 27.6677 18.8262 27.1075 19.2987L22.4125 22.7457L20.9935 20.915C20.8614 20.7442 20.6969 20.6012 20.5095 20.494C20.322 20.3869 20.1153 20.3177 19.9011 20.2905C19.687 20.2632 19.4695 20.2785 19.2612 20.3353C19.0529 20.3922 18.8579 20.4895 18.6873 20.6217C18.5164 20.7539 18.3732 20.9184 18.266 21.1059C18.1588 21.2934 18.0896 21.5002 18.0623 21.7145C18.0351 21.9287 18.0504 22.1463 18.1073 22.3546C18.1642 22.563 18.2616 22.7581 18.394 22.9287L20.7925 26.0285C21.0557 26.3675 21.4409 26.5905 21.866 26.6499C22.2911 26.7093 22.7227 26.6004 23.0688 26.3465L28.5077 22.3707C28.8161 22.1307 29.1211 21.8864 29.4227 21.638C31.0022 20.1935 31.3105 18.3432 30.643 16.7232C29.9522 15.0425 28.201 14 26.0763 14H17.908Z" fill="black"/>
</svg>
