<svg width="45" height="45" viewBox="0 0 45 45" fill="none" xmlns="http://www.w3.org/2000/svg">
<rect y="22.5" width="31.8199" height="31.8199" transform="rotate(-45 0 22.5)" fill="#CDFB7C"/>
<path fill-rule="evenodd" clip-rule="evenodd" d="M18.9939 32.1868C18.5348 32.1868 18.0894 31.9771 17.7961 31.5961L13.3366 25.8784C13.1898 25.6916 13.0872 25.4739 13.0364 25.2418C12.9856 25.0097 12.988 24.7692 13.0433 24.5381L14.6399 17.402C14.7413 16.9292 15.0483 16.5482 15.469 16.3385L21.9309 13.159C22.1364 13.0521 22.3653 13 22.5956 13C22.8258 13 23.0547 13.0521 23.2602 13.1576L29.7193 16.3248C30.1414 16.5345 30.4484 16.9168 30.5498 17.3897L32.1464 24.5258C32.2479 24.9986 32.1464 25.4851 31.8532 25.8661L27.3895 31.592C27.0962 31.9593 26.6494 32.1868 26.1903 32.1868H18.9939ZM29.5713 24.19L29.6138 24.201C29.6716 24.2087 29.7272 24.2283 29.7771 24.2587C29.8269 24.289 29.8699 24.3293 29.9034 24.3771C29.9369 24.4248 29.9601 24.479 29.9716 24.5362C29.9831 24.5934 29.9826 24.6524 29.9701 24.7094C29.9572 24.7667 29.9325 24.8206 29.8975 24.8677C29.8624 24.9149 29.8179 24.9541 29.7667 24.9829C29.7156 25.0117 29.6589 25.0294 29.6005 25.035C29.542 25.0405 29.4831 25.0337 29.4274 25.015H29.4219L29.4178 25.0136L29.4137 25.0123L29.3726 25.0027L29.3041 24.989C29.1762 24.9478 29.0508 24.8993 28.9285 24.8437C28.6925 24.749 28.4479 24.6774 28.1981 24.6299C28.1117 24.6271 28.0276 24.658 27.9637 24.7163C27.904 24.7049 27.8442 24.6944 27.7842 24.6847C27.3778 25.9577 26.5173 27.0367 25.3667 27.7162C25.3872 27.7738 25.4105 27.83 25.4366 27.8848C25.394 27.9597 25.3827 28.0483 25.405 28.1315C25.5065 28.3645 25.6312 28.5865 25.7764 28.7948C25.8587 28.9017 25.9327 29.0141 26.0012 29.1292L26.0396 29.2073L26.056 29.2416C26.1018 29.3174 26.1223 29.4058 26.1148 29.494C26.1072 29.5822 26.072 29.6658 26.014 29.7328C25.956 29.7997 25.8783 29.8466 25.7921 29.8667C25.7058 29.8868 25.6155 29.879 25.5339 29.8446C25.4795 29.8222 25.4305 29.7887 25.3899 29.7462C25.3493 29.7037 25.318 29.6532 25.2981 29.5979C25.2936 29.5888 25.289 29.5796 25.2844 29.5705L25.2461 29.491C25.1981 29.3656 25.1573 29.2374 25.1241 29.1073C25.0513 28.8646 24.9549 28.6295 24.8363 28.4056C24.7848 28.3359 24.708 28.2892 24.6225 28.2754C24.6087 28.2513 24.595 28.227 24.5814 28.2028L24.5334 28.115C23.2858 28.5863 21.9085 28.5829 20.6632 28.1055L20.5686 28.2768C20.5009 28.2872 20.4378 28.3177 20.3877 28.3645C20.2452 28.5975 20.1355 28.851 20.0629 29.1155C20.0302 29.2456 19.9899 29.3738 19.9423 29.4992L19.908 29.5678L19.8902 29.6048C19.8701 29.6597 19.8388 29.7111 19.7983 29.7533C19.7578 29.7954 19.709 29.8286 19.6549 29.8508C19.6008 29.873 19.5427 29.8837 19.4843 29.8822C19.4258 29.8807 19.3684 29.867 19.3155 29.8421C19.2626 29.8171 19.2156 29.7815 19.1773 29.7373C19.139 29.6931 19.1103 29.6415 19.0931 29.5856C19.0758 29.5298 19.0704 29.471 19.0772 29.4129C19.0839 29.3548 19.1027 29.2988 19.1323 29.2484L19.1515 29.2073L19.1872 29.1361C19.2557 29.0196 19.3297 28.9086 19.4119 28.8017C19.5599 28.5879 19.686 28.3604 19.7915 28.1219C19.8025 28.0408 19.7891 27.9583 19.7532 27.8848L19.8299 27.7025C18.6835 27.0284 17.8235 25.9578 17.4124 24.693L17.2287 24.7245C17.1578 24.6742 17.0743 24.6448 16.9875 24.6395C16.7377 24.687 16.4931 24.7586 16.2571 24.8533C16.1337 24.9081 16.009 24.9561 15.8816 24.9972L15.813 25.0123L15.7719 25.0219H15.7678L15.7651 25.0246H15.7582C15.6887 25.0469 15.6146 25.0508 15.5432 25.0359C15.4718 25.021 15.4054 24.9879 15.3506 24.9397C15.2958 24.8915 15.2544 24.8299 15.2305 24.761C15.2066 24.6921 15.2009 24.6181 15.2141 24.5463C15.231 24.4599 15.2746 24.3809 15.3388 24.3207C15.403 24.2604 15.4845 24.2219 15.5718 24.2105L15.5773 24.2092H15.5814L15.5896 24.2064C15.6225 24.1982 15.6637 24.1872 15.6938 24.1818C15.8267 24.1639 15.961 24.153 16.0954 24.1502C16.3503 24.1324 16.6024 24.0913 16.8478 24.0269C16.9205 23.9803 16.9818 23.918 17.0273 23.8446L17.2027 23.7939C17.0121 22.4743 17.3167 21.1307 18.0579 20.0224L17.9249 19.9031C17.9198 19.8163 17.8904 19.7327 17.84 19.6619C17.6468 19.4962 17.438 19.3498 17.2164 19.2247C17.0966 19.1639 16.9804 19.0961 16.8683 19.0219C16.8387 19.0001 16.8099 18.9772 16.782 18.9534L16.7765 18.9479C16.681 18.8799 16.6164 18.7767 16.5968 18.6611C16.5773 18.5455 16.6045 18.4268 16.6723 18.3312C16.7127 18.2822 16.7639 18.2434 16.822 18.218C16.8801 18.1925 16.9434 18.181 17.0067 18.1845C17.1132 18.189 17.2155 18.2275 17.2986 18.2942L17.3288 18.3175C17.3507 18.3353 17.3754 18.3531 17.3918 18.3682C17.4891 18.46 17.5823 18.5587 17.6687 18.6601C17.84 18.8478 18.0291 19.0192 18.2333 19.1699C18.3101 19.211 18.3991 19.2192 18.4827 19.1946L18.6335 19.3015C19.5511 18.3282 20.7975 17.7304 22.131 17.624L22.1406 17.4472C22.2058 17.39 22.2534 17.3154 22.2776 17.232C22.2869 16.9781 22.2713 16.7238 22.231 16.4728C22.2042 16.3415 22.185 16.2088 22.1734 16.0754V16.0027V15.9685V15.963V15.9575C22.1673 15.8989 22.1735 15.8396 22.1918 15.7835C22.2101 15.7275 22.24 15.6759 22.2796 15.6322C22.3192 15.5885 22.3675 15.5536 22.4215 15.5298C22.4755 15.5061 22.5338 15.494 22.5928 15.4943C22.6515 15.4944 22.7096 15.5068 22.7632 15.5306C22.8169 15.5544 22.865 15.5892 22.9044 15.6326C22.9439 15.6761 22.9739 15.7273 22.9924 15.783C23.011 15.8387 23.0177 15.8977 23.0122 15.9561V16.0754C23.0011 16.2088 22.9824 16.3415 22.956 16.4728C22.9154 16.7233 22.8994 16.9771 22.908 17.2307C22.9245 17.3158 22.9737 17.3911 23.0451 17.4404V17.45L23.0547 17.6281C24.3799 17.7474 25.6175 18.3435 26.5357 19.3042L26.6947 19.1905C26.7805 19.2053 26.8688 19.1959 26.9496 19.1631C27.1538 19.0123 27.3429 18.841 27.5142 18.6519C27.6008 18.5493 27.6932 18.4518 27.791 18.36L27.8609 18.3051L27.8842 18.2859C27.959 18.2156 28.0568 18.1748 28.1594 18.1714C28.262 18.1679 28.3624 18.202 28.4417 18.2672C28.521 18.3324 28.5738 18.4242 28.5903 18.5256C28.6067 18.6269 28.5857 18.7308 28.5311 18.8177C28.4991 18.867 28.457 18.909 28.4078 18.941C28.3968 18.9479 28.3845 18.9575 28.3735 18.9685L28.3146 19.0137C28.2025 19.0879 28.0863 19.1556 27.9665 19.2165C27.7449 19.3421 27.536 19.489 27.3429 19.6551C27.2866 19.7202 27.258 19.8048 27.2634 19.8908C27.2407 19.9111 27.2179 19.9312 27.1949 19.9511L27.1154 20.0237C27.8582 21.1283 28.1693 22.4673 27.9884 23.7857L28.157 23.835C28.1995 23.9118 28.2625 23.9735 28.3379 24.0159C28.5846 24.0817 28.8367 24.1228 29.0916 24.1393C29.2246 24.1434 29.3589 24.153 29.4918 24.1722L29.5713 24.19ZM25.6312 19.9415L23.8386 21.2092L23.8331 21.2064C23.7791 21.2462 23.7154 21.2706 23.6487 21.277C23.5819 21.2834 23.5147 21.2715 23.4542 21.2427C23.3937 21.2138 23.3421 21.1691 23.3051 21.1132C23.268 21.0574 23.2468 20.9925 23.2438 20.9255L23.1191 18.7341C24.0661 18.8514 24.9486 19.2746 25.6312 19.9415ZM22.2557 22.3439H22.93L23.3493 22.8661L23.1986 23.5185L22.5928 23.8076L21.9857 23.5157L21.8349 22.8647L22.2557 22.3439ZM21.6198 18.8108C21.7664 18.778 21.9158 18.7519 22.0665 18.7341L21.9432 20.9269L21.9322 20.9324C21.9302 20.9822 21.9181 21.0311 21.8965 21.0761C21.875 21.1211 21.8445 21.1613 21.8069 21.1941C21.7693 21.227 21.7255 21.2518 21.678 21.2671C21.6305 21.2824 21.5804 21.2879 21.5307 21.2832C21.464 21.2775 21.4 21.2538 21.3457 21.2147L21.3429 21.216L19.5394 19.9415C20.1136 19.3796 20.8345 18.9876 21.6198 18.8108ZM18.887 20.761L20.533 22.2288L20.5316 22.2384C20.5818 22.2823 20.6191 22.3389 20.6397 22.4023C20.6602 22.4657 20.6632 22.5335 20.6483 22.5984C20.6334 22.6634 20.6012 22.7231 20.5551 22.7712C20.5089 22.8193 20.4506 22.854 20.3863 22.8716L20.385 22.8784L18.2744 23.4856C18.1694 22.5345 18.3851 21.5756 18.887 20.761ZM21.0908 24.6614L20.252 26.6815C19.4484 26.1684 18.8366 25.4043 18.5115 24.5079L20.6741 24.142L20.6782 24.1461C20.7626 24.1298 20.85 24.1439 20.9249 24.1859C21.0045 24.2303 21.0649 24.3026 21.0945 24.3889C21.1241 24.4751 21.1208 24.5692 21.0853 24.6532L21.0908 24.6614ZM23.5659 27.2599C22.7819 27.438 21.9624 27.3969 21.2004 27.1393L22.2653 25.2206C22.2969 25.1618 22.3451 25.1127 22.4024 25.0785C22.4596 25.0442 22.525 25.026 22.5917 25.0259C22.6584 25.0257 22.7239 25.0436 22.7813 25.0777C22.8387 25.1117 22.8858 25.1606 22.9176 25.2192H22.9258L23.9934 27.1406C23.853 27.1874 23.7103 27.2272 23.5659 27.2599ZM24.9418 26.6897L24.0949 24.6491L24.0962 24.645C24.0701 24.5837 24.0611 24.5165 24.0702 24.4505C24.0792 24.3845 24.1059 24.3222 24.1475 24.2702C24.1891 24.2182 24.2441 24.1785 24.3064 24.1552C24.3688 24.1319 24.4364 24.1259 24.5019 24.1379L24.506 24.1324L26.6892 24.5011C26.3664 25.4047 25.7515 26.1749 24.9418 26.6897ZM26.9181 23.4787L24.7993 22.8688L24.7965 22.8606C24.7485 22.8473 24.7036 22.8244 24.6646 22.7933C24.6255 22.7622 24.5932 22.7236 24.5695 22.6796C24.5459 22.6357 24.5313 22.5875 24.5267 22.5378C24.5222 22.4881 24.5277 22.438 24.543 22.3905C24.564 22.3268 24.6019 22.2699 24.6526 22.2261L24.6485 22.2233L26.2863 20.761C26.7879 21.5751 27.0085 22.529 26.9167 23.4787H26.9181Z" fill="black"/>
</svg>
