<svg width="45" height="45" viewBox="0 0 45 45" fill="none" xmlns="http://www.w3.org/2000/svg">
<rect y="22.5" width="31.8199" height="31.8199" transform="rotate(-45 0 22.5)" fill="#CDFB7C"/>
<g clip-path="url(#clip0_33_853)">
<path fill-rule="evenodd" clip-rule="evenodd" d="M29.8975 17.6819C29.9362 17.969 29.9578 18.2758 29.9578 18.607C29.9578 20.1892 29.8111 20.2783 26.5243 29.7796C29.2 28.219 31 25.3201 31 22C31 20.4349 30.6004 18.9635 29.8975 17.6819ZM22.1584 22.7875L19.4575 30.6335C21.28 31.1699 23.2114 31.1153 24.9889 30.4907C24.9646 30.452 24.943 30.4104 24.925 30.3663L22.1584 22.7875ZM28.0759 21.5456C28.0759 20.4332 27.6763 19.6625 27.3334 19.0631C26.878 18.3215 26.4496 17.6945 26.4496 16.9529C26.4496 16.1258 27.0778 15.3555 27.9616 15.3555C28.0012 15.3555 28.039 15.3607 28.0777 15.3625C26.4766 13.8955 24.3436 13 22 13C18.8563 13 16.0897 14.6127 14.4805 17.0562C15.0538 17.0742 15.8233 17.0816 17.4586 16.9538C17.9437 16.925 18.0004 17.6375 17.5162 17.6942C17.5162 17.6942 17.0284 17.752 16.4857 17.7808L19.7635 27.5296L21.7327 21.6221L20.3305 17.7799C19.8463 17.752 19.3873 17.6942 19.3873 17.6942C18.9022 17.6654 18.9589 16.9241 19.444 16.9529C21.3043 17.096 22.2565 17.1068 24.2131 16.9529C24.6982 16.9241 24.7558 17.6366 24.2707 17.6942C24.2707 17.6942 23.782 17.752 23.2402 17.7799L26.4928 27.4549C27.7771 23.1637 28.0759 22.4456 28.0759 21.5456ZM13 22C13 25.5622 15.07 28.6411 18.0724 30.1L13.7794 18.3372C13.2799 19.4568 13 20.695 13 22Z" fill="black"/>
</g>
<defs>
<clipPath id="clip0_33_853">
<rect width="18" height="18" fill="white" transform="translate(13 13)"/>
</clipPath>
</defs>
</svg>
