<svg width="45" height="45" viewBox="0 0 45 45" fill="none" xmlns="http://www.w3.org/2000/svg">
<rect y="22.5" width="31.8199" height="31.8199" transform="rotate(-45 0 22.5)" fill="#CDFB7C"/>
<path d="M25.2852 17.8054C24.5568 17.3983 24.3218 16.4774 24.7281 15.7497C25.0063 15.257 25.5203 15 26.0342 15C26.2912 15 26.5481 15.0644 26.7839 15.1926C27.5123 15.6208 27.7473 16.5418 27.341 17.2483C27.0628 17.741 26.5488 17.9979 26.0349 17.9979C25.7779 17.9979 25.521 17.9335 25.2852 17.8054ZM29.0328 22.0669H26.5488C26.4632 20.9102 25.8848 19.8823 25.007 19.219C24.857 19.1121 24.7069 19.0045 24.5356 18.8977C23.9785 18.5975 23.3364 18.4262 22.6512 18.4262C21.9447 18.4262 21.3019 18.5975 20.7236 18.9189L19.3531 16.8419C20.3166 16.2636 21.4301 15.9422 22.6512 15.9422C23.1226 15.9422 23.5934 15.9854 24.0648 16.0923C23.8935 16.9276 24.2574 17.8054 25.0283 18.2549C25.3284 18.4262 25.671 18.5119 26.0349 18.5119C26.5276 18.5119 26.9983 18.3406 27.3629 18.0192C28.3483 19.0902 28.9691 20.5032 29.0335 22.0662L29.0328 22.0669ZM18.8823 17.1633L20.2528 19.2403C19.3963 19.9043 18.8179 20.9109 18.7535 22.0669C18.7323 22.1525 18.7323 22.2382 18.7323 22.3451C18.7323 22.4308 18.7323 22.5377 18.7535 22.6233C18.8392 23.8437 19.4819 24.8935 20.4241 25.5568L19.1181 27.677C17.8757 26.8629 16.9335 25.6212 16.5052 24.1651C17.1048 23.8225 17.5331 23.1585 17.5331 22.4088C17.5331 21.6592 17.1048 20.9739 16.4621 20.6313C16.8691 19.2177 17.7257 17.9972 18.8817 17.1619L18.8823 17.1633ZM15.4993 20.9102C16.3346 20.9102 17.0199 21.5742 17.0199 22.4095C17.0199 23.2448 16.3346 23.9301 15.4993 23.9301C14.664 23.9301 14 23.2448 14 22.4095C14 21.5742 14.664 20.9102 15.4993 20.9102ZM19.6108 27.9771L20.9168 25.8357C21.4308 26.0927 22.0303 26.2428 22.6512 26.2428C23.3364 26.2428 23.9792 26.0714 24.5568 25.7501C24.7281 25.6644 24.8782 25.5575 25.0283 25.4287C25.8848 24.7859 26.4632 23.78 26.5488 22.6233H29.0328C28.9684 24.2508 28.2832 25.7281 27.2128 26.8204C26.8914 26.5847 26.4844 26.4565 26.0781 26.4565C25.7142 26.4565 25.3716 26.5422 25.0714 26.7135C24.3862 27.1205 24.0223 27.8483 24.0648 28.5767C23.5934 28.6836 23.1226 28.748 22.6512 28.748C21.5377 28.748 20.5105 28.4698 19.6108 27.9771ZM26.0774 26.9705C26.5913 26.9705 27.1052 27.2274 27.3834 27.7201C27.7905 28.4485 27.5335 29.3907 26.8263 29.7971C26.5906 29.9259 26.3337 29.9896 26.0767 29.9896C25.5415 29.9896 25.0488 29.7327 24.7706 29.24C24.3423 28.5116 24.5993 27.5913 25.3277 27.163C25.5634 27.0342 25.8204 26.9705 26.0774 26.9705Z" fill="black"/>
</svg>
