<svg width="45" height="45" viewBox="0 0 45 45" fill="none" xmlns="http://www.w3.org/2000/svg">
<rect y="22.5" width="31.8199" height="31.8199" transform="rotate(-45 0 22.5)" fill="#CDFB7C"/>
<path d="M24.2318 18.1039C23.7313 17.1983 22.2628 17 22.2628 17C22.2628 17 22.9407 17.7545 22.0743 18.3516C21.5269 18.7282 21.31 19.2176 21.5446 19.7522C21.724 20.1617 22.104 20.328 22.5138 20.3906C22.4085 20.188 22.3822 19.8955 22.46 19.5954C22.4677 19.5655 22.4764 19.5341 22.4863 19.5057C22.6012 19.6834 22.7896 19.7806 22.9736 19.7357C23.2255 19.6759 23.3733 19.3711 23.3045 19.0579C23.2887 18.9899 23.2632 18.9246 23.2288 18.864C23.2386 18.8664 23.2485 18.8673 23.2587 18.8706C23.5731 18.9603 23.7251 19.4303 23.5982 19.9209C23.5606 20.0695 23.4973 20.2103 23.411 20.337C23.9506 20.1632 24.3096 19.728 24.4083 19.3403C24.5124 18.9367 24.4334 18.4664 24.2318 18.1039Z" fill="#FD3A5C"/>
<path d="M25.7639 22.5098C26.0278 22.5098 26.1549 22.6357 26.1549 22.8987V27.3749C26.1549 28.5269 25.3128 28.9846 24.4357 28.9846C24.1213 28.9846 23.9253 28.8575 23.9253 28.6035V28.2146C23.9253 28.0282 24.0019 27.8664 24.3085 27.8323C24.555 27.8072 24.8024 27.6713 24.8024 27.2738V22.8987C24.8024 22.6366 24.9296 22.5098 25.1934 22.5098H25.7639ZM18.5358 22.3904C20.1097 22.3904 20.5357 23.307 20.5357 24.629C20.5357 25.9509 20.1097 26.8663 18.5358 26.8663C16.9611 26.8663 16.5351 25.9518 16.5351 24.629C16.5351 23.3061 16.962 22.3904 18.5358 22.3904ZM28.6701 22.3904C30.2024 22.3904 30.4914 23.0432 30.4914 23.9927V26.3602C30.4914 26.6219 30.3642 26.7491 30.1004 26.7491H29.9209C29.7085 26.7491 29.6316 26.6812 29.5212 26.4861L29.4871 26.4263C29.1805 26.6967 28.7467 26.8663 28.2367 26.8663C27.1556 26.8663 26.7897 26.1547 26.7897 25.5184C26.7897 24.3738 27.6321 24.2051 28.3973 24.1285L29.1727 24.0519V23.7803C29.1727 23.5853 29.036 23.4847 28.6701 23.4847C28.2193 23.4847 27.709 23.6194 27.5893 23.6454C27.2486 23.7208 27.0538 23.5182 27.0538 23.2631V23.0342C27.0538 22.765 27.1897 22.6357 27.3593 22.5855C27.7849 22.4594 28.2262 22.3938 28.6701 22.3904ZM22.3108 21.4508C22.668 21.3575 22.8212 21.5349 22.8212 21.7978V22.5098H23.4856C23.7494 22.5098 23.8778 22.6357 23.8778 22.8987V23.2478C23.8778 23.5099 23.7494 23.6367 23.4856 23.6367H22.8218V25.2545C22.8218 25.5854 22.9501 25.7726 23.3836 25.7726H23.4691C23.6642 25.7726 23.835 25.9073 23.835 26.1283V26.4077C23.8404 26.6164 23.6914 26.7971 23.4856 26.8316C23.3595 26.8551 23.2315 26.8664 23.1033 26.8654C21.8944 26.8654 21.4606 26.365 21.4606 25.3652V23.6358H21.1289C20.8647 23.6358 20.7367 23.5099 20.7367 23.2469V23.0519C20.7367 22.8329 20.8309 22.7213 21.0771 22.6534L21.4606 22.5514L21.46 21.9929C21.46 21.7485 21.5617 21.6542 21.8684 21.569L22.3108 21.4508ZM12.9713 20.3906C13.2352 20.3906 13.3632 20.5169 13.3632 20.7795V22.6621C13.7036 22.4802 14.0842 22.3868 14.4701 22.3904C15.6275 22.3904 15.9596 23.0004 15.9596 23.8141V26.3584C15.9596 26.6201 15.8312 26.7473 15.5674 26.7473H14.9876C14.7238 26.7473 14.5957 26.621 14.5957 26.3584V24.0178C14.5957 23.7046 14.485 23.4922 14.1192 23.4922C13.8515 23.4959 13.5898 23.5724 13.3623 23.7136V26.3584C13.3623 26.6201 13.2343 26.7473 12.9704 26.7473H12.3922C12.1283 26.7473 12 26.621 12 26.3584V20.7795C12 20.5178 12.1283 20.3906 12.3922 20.3906H12.9713ZM33.4027 22.3898C33.7856 22.3898 33.9053 22.5343 33.9053 22.771V23.1216C33.9053 23.3746 33.7614 23.5105 33.5221 23.5105C33.0455 23.5105 32.6545 23.6538 32.5441 23.7558V26.3584C32.5441 26.6201 32.4158 26.7473 32.152 26.7473H31.5737C31.3099 26.7473 31.1815 26.621 31.1815 26.3584V22.8972C31.1815 22.6351 31.3099 22.5083 31.5737 22.5083H31.7861C32.0239 22.5083 32.0499 22.6022 32.1696 22.8137C32.382 22.61 32.9097 22.3898 33.4027 22.3898ZM29.173 24.7899L28.6025 24.8656C28.2193 24.9171 28.0659 25.1031 28.0659 25.434C28.0659 25.7472 28.2708 25.9345 28.5598 25.9345C28.8063 25.9345 29.0363 25.8666 29.173 25.7308V24.7899ZM18.5358 23.4758C18.0671 23.4758 17.8974 23.7812 17.8974 24.629C17.8974 25.4768 18.068 25.781 18.5358 25.781C19.0037 25.781 19.1733 25.4777 19.1733 24.629C19.1733 23.7803 19.0037 23.4758 18.5358 23.4758Z" fill="#1D1D1B"/>
</svg>
