<svg width="45" height="45" viewBox="0 0 45 45" fill="none" xmlns="http://www.w3.org/2000/svg">
<rect y="22.5" width="31.8199" height="31.8199" transform="rotate(-45 0 22.5)" fill="#CDFB7C"/>
<g clip-path="url(#clip0_33_844)">
<path d="M22.4999 15.1875L30.2349 17.9438L29.0624 28.1813L22.4999 31.8125L15.9374 28.1813L14.7649 17.9438L22.4999 15.1875ZM22.4999 16.9375L16.3749 19.125L17.3199 27.1925L22.4999 30.0625L27.6799 27.1925L28.6249 19.125L22.4999 16.9375ZM22.4999 18.005L26.5074 27H25.0111L24.1974 25.005H20.7499L19.9799 27H18.4836L22.4999 18.005ZM23.6724 23.7625L22.4999 20.9362L21.3274 23.7625H23.6724Z" fill="black"/>
</g>
<defs>
<clipPath id="clip0_33_844">
<rect width="21" height="21" fill="white" transform="translate(12 13)"/>
</clipPath>
</defs>
</svg>
