<svg width="45" height="46" viewBox="0 0 45 46" fill="none" xmlns="http://www.w3.org/2000/svg">
<rect y="23" width="31.8199" height="31.8199" transform="rotate(-45 0 23)" fill="#CDFB7C"/>
<path d="M31.8295 16.1298C31.4204 16.3306 30.9387 16.4484 30.4302 16.4484C30.4186 16.4484 30.4069 16.4484 30.3953 16.4484H30.3974C30.0253 16.4484 29.6683 16.5142 29.338 16.6341L29.3599 16.6273C28.639 16.8952 28.047 17.3687 27.6379 17.9765L27.6297 17.9889C27.2905 18.4637 26.9369 19.0201 26.6107 19.5944L26.56 19.6917C26.2982 20.1234 26.0399 20.4927 25.7596 20.8436L25.7761 20.8223C25.2957 21.4157 24.6797 21.881 23.9739 22.1729L23.9438 22.1839C23.0057 22.6067 21.8401 23.037 20.6423 23.3947L20.4312 23.4489C19.5123 23.751 18.605 24.0806 18.4043 24.1889C17.6443 24.6021 17.0132 25.1606 16.5288 25.8321L16.5178 25.8486C15.6592 26.9792 15.6852 26.9731 13.9132 26.6592C13.7209 26.6359 13.5281 26.6179 13.3348 26.6051C13.2526 26.5873 13.1581 26.577 13.0614 26.577C12.7305 26.577 12.4276 26.6955 12.1926 26.8929L12.1946 26.8908L12 27.0752L12.1514 27.1505C12.3351 27.265 12.4913 27.3773 12.6407 27.4986L12.6318 27.4918C12.7702 27.6062 12.9237 27.7165 13.0847 27.8159L13.1026 27.8262C13.1635 27.8543 13.2149 27.8837 13.2643 27.9159L13.2595 27.9132C13.206 28.029 13.1409 28.1284 13.0628 28.2168L13.0642 28.2154C12.6914 28.7129 12.5564 28.9609 12.5729 29.1131C12.5893 29.2535 12.6003 29.2583 12.9408 29.2583C12.9593 29.259 12.9813 29.259 13.0032 29.259C13.3684 29.259 13.7179 29.1932 14.0413 29.0733L14.0208 29.0802C14.9472 28.7026 15.7311 28.3004 16.4753 27.8406L16.4047 27.881C16.8871 27.5487 17.4381 27.2492 18.0205 27.0101L18.0795 26.9888C18.1494 26.9717 18.3823 26.9292 18.5879 26.8915C18.8757 26.8538 19.2087 26.8319 19.5472 26.8319C19.9906 26.8319 20.4257 26.8689 20.8485 26.9408L20.8026 26.9347C20.8951 26.9456 21.1219 26.9731 21.3165 26.9895C21.4591 26.9991 21.592 27.0224 21.7188 27.058L21.7051 27.0546C21.7277 27.0649 22.1107 27.0861 22.5596 27.1026C23.3592 27.1245 23.5052 27.1087 23.6731 26.9408C23.8485 26.699 23.9931 26.4194 24.0931 26.1192L24.0993 26.0973C24.2781 25.5464 24.4563 25.3086 24.4125 25.6759C24.3439 26.4413 24.126 27.1423 23.7875 27.7693L23.8019 27.7405C23.5614 28.1942 23.2962 28.5861 22.994 28.9452L23.0022 28.9349C22.7268 29.2323 22.7322 29.2433 23.0776 29.2049C23.7567 29.0987 24.3631 28.8513 24.8873 28.4929L24.8723 28.5025C25.7117 27.8344 26.3572 26.9573 26.7341 25.9486L26.7471 25.9082C26.8389 25.6773 26.9355 25.7197 26.904 25.9795C26.893 26.0596 26.8718 26.2494 26.8553 26.4057L26.8286 26.6866L27.1308 26.5139C27.9839 25.9198 28.6233 25.0701 28.9426 24.0779L28.9522 24.0443C29.2763 23.133 29.5936 21.992 29.8389 20.8244L29.8711 20.6401C29.9437 20.281 30.0239 19.9815 30.1198 19.6896L30.1034 19.7479C30.1664 19.4566 30.3124 19.2058 30.5138 19.014L30.5145 19.0133C30.7681 18.7714 31.0408 18.5446 31.3293 18.337L31.3519 18.3212C31.7836 18.0759 32.129 17.725 32.3613 17.3029L32.3681 17.2892C32.4777 17.0789 32.5422 16.8294 32.5422 16.5649C32.5422 16.4094 32.5195 16.2586 32.4784 16.1161L32.4812 16.1271C32.3681 15.9544 32.2379 15.9592 31.8275 16.1325L31.8295 16.1298Z" fill="black"/>
</svg>
