<svg width="45" height="45" viewBox="0 0 45 45" fill="none" xmlns="http://www.w3.org/2000/svg">
<rect x="45" y="22.5" width="31.8199" height="31.8199" transform="rotate(135 45 22.5)" fill="#CDFB7C"/>
<g clip-path="url(#clip0_92_631)">
<path d="M29.3 14H16.7C15.2088 14 14 15.2088 14 16.7V29.3C14 30.7912 15.2088 32 16.7 32H29.3C30.7912 32 32 30.7912 32 29.3V16.7C32 15.2088 30.7912 14 29.3 14Z" fill="#CB3837"/>
<path d="M17.5437 21.6833H18.3804L18.2943 22.1078C18.5035 21.9273 18.6983 21.7992 18.8788 21.7233C19.0613 21.6454 19.253 21.6064 19.454 21.6064C19.7227 21.6064 19.9339 21.6833 20.0877 21.8371C20.2436 21.9909 20.3215 22.195 20.3215 22.4493C20.3215 22.5641 20.2876 22.7815 20.22 23.1014L19.8354 24.9502H18.9526L19.3402 23.0953C19.3976 22.8184 19.4263 22.6533 19.4263 22.6C19.4263 22.4872 19.3925 22.399 19.3248 22.3354C19.2592 22.2698 19.1669 22.237 19.0479 22.237C18.9188 22.237 18.7752 22.2914 18.6173 22.4C18.4594 22.5087 18.3353 22.6523 18.2451 22.8307C18.1794 22.9579 18.1056 23.2173 18.0236 23.609L17.7437 24.9502H16.8608L17.5437 21.6833ZM21.3551 21.6833H22.1918L22.121 22.0186C22.2995 21.8709 22.4666 21.7653 22.6225 21.7018C22.7783 21.6382 22.9455 21.6064 23.1239 21.6064C23.4664 21.6064 23.7412 21.7243 23.9483 21.9602C24.1575 22.196 24.2621 22.5477 24.2621 23.0153C24.2621 23.6039 24.0826 24.1012 23.7237 24.5072C23.4161 24.8538 23.0521 25.0271 22.6317 25.0271C22.199 25.0271 21.8719 24.8518 21.6504 24.5011L21.2966 26.196H20.4138L21.3551 21.6833ZM21.8873 23.5567C21.8873 23.811 21.9488 24.0089 22.0718 24.1504C22.1969 24.2898 22.3436 24.3596 22.5117 24.3596C22.6573 24.3596 22.7978 24.3073 22.9332 24.2027C23.0685 24.096 23.1803 23.9207 23.2685 23.6767C23.3587 23.4306 23.4038 23.2029 23.4038 22.9938C23.4038 22.7497 23.3454 22.5631 23.2285 22.4339C23.1116 22.3026 22.9629 22.237 22.7824 22.237C22.6143 22.237 22.4604 22.2975 22.321 22.4185C22.1836 22.5375 22.077 22.7138 22.0011 22.9476C21.9252 23.1793 21.8873 23.3824 21.8873 23.5567ZM25.2064 21.6833H26.037L25.954 22.0801C26.278 21.7643 26.6184 21.6064 26.9752 21.6064C27.2213 21.6064 27.411 21.6577 27.5443 21.7602C27.6776 21.8627 27.7627 22.0042 27.7997 22.1847C27.9125 22.0207 28.0745 21.8833 28.2857 21.7725C28.4969 21.6618 28.7164 21.6064 28.944 21.6064C29.2044 21.6064 29.4075 21.6761 29.5531 21.8156C29.6987 21.955 29.7715 22.1396 29.7715 22.3693C29.7715 22.4821 29.7428 22.6769 29.6854 22.9538L29.267 24.9502H28.3841L28.8025 22.9538C28.8538 22.7036 28.8794 22.5621 28.8794 22.5292C28.8794 22.439 28.8517 22.3683 28.7963 22.317C28.743 22.2637 28.662 22.237 28.5533 22.237C28.3339 22.237 28.138 22.3529 27.9658 22.5846C27.8407 22.7507 27.734 23.045 27.6458 23.4675L27.3352 24.9502H26.4523L26.8645 22.9753C26.9117 22.7477 26.9353 22.6 26.9353 22.5323C26.9353 22.4462 26.9055 22.3754 26.846 22.3201C26.7886 22.2647 26.7086 22.237 26.6061 22.237C26.5097 22.237 26.4103 22.2657 26.3077 22.3231C26.2052 22.3806 26.1149 22.4595 26.037 22.56C25.9611 22.6605 25.8955 22.7897 25.8401 22.9476C25.8155 23.0214 25.7755 23.1886 25.7202 23.449L25.4064 24.9502H24.5235L25.2064 21.6833Z" fill="white"/>
</g>
<defs>
<clipPath id="clip0_92_631">
<rect width="18" height="18" fill="white" transform="translate(14 14)"/>
</clipPath>
</defs>
</svg>
