<svg width="45" height="45" viewBox="0 0 45 45" fill="none" xmlns="http://www.w3.org/2000/svg">
<rect x="45" y="22.5" width="31.8199" height="31.8199" transform="rotate(135 45 22.5)" fill="#CDFB7C"/>
<path fill-rule="evenodd" clip-rule="evenodd" d="M19.3604 20.091C18.0568 20.091 17.0001 21.1476 17.0001 22.4511C17.0001 23.7547 18.0569 24.8115 19.3604 24.8115H21.7207V22.4987C21.7205 22.4829 21.7204 22.467 21.7204 22.4511C21.7204 22.4353 21.7205 22.4194 21.7207 22.4036V20.091H19.3604ZM21.7207 18.7206H19.3604C18.0569 18.7206 17.0001 17.6638 17.0001 16.3603C17.0001 15.0567 18.0569 14 19.3604 14H21.7207V18.7206ZM23.0912 14V18.7205L25.4508 18.7204C26.7544 18.7204 27.8115 17.6638 27.8115 16.3603C27.8115 15.0567 26.7547 14 25.4511 14H23.0912ZM25.4509 20.0909C24.1601 20.091 23.1113 21.1273 23.0912 22.4133V22.4889C23.1113 23.7751 24.1602 24.8115 25.4511 24.8115C26.7547 24.8115 27.8115 23.7547 27.8115 22.4511C27.8115 21.1476 26.7545 20.0909 25.4509 20.0909ZM19.3604 26.1819C18.0569 26.1819 17 27.2389 17 28.5425C17 29.8461 18.0567 30.9028 19.3603 30.9028C20.6638 30.9028 21.7206 29.8461 21.7206 28.5425L21.7207 26.1819H19.3604Z" fill="black"/>
</svg>
