<svg width="45" height="45" viewBox="0 0 45 45" fill="none" xmlns="http://www.w3.org/2000/svg">
<rect y="22.5" width="31.8199" height="31.8199" transform="rotate(-45 0 22.5)" fill="#CDFB7C"/>
<path d="M20.0141 19.5887C19.8642 19.2573 19.7971 18.8708 19.9116 18.5196C20.0261 18.1606 20.2825 17.8726 20.539 17.6043C21.2529 16.8901 22.1328 16.3654 22.8311 15.6395C23.2177 15.241 23.5373 14.7636 23.6477 14.2152C23.7385 13.8128 23.6951 13.3985 23.6123 13C23.9832 13.4222 24.1055 14.0258 23.9989 14.5703C23.8846 15.1818 23.5451 15.7223 23.1467 16.1878C22.8272 16.5627 22.4602 16.8941 22.0776 17.2019C21.6317 17.5609 21.1939 17.9475 20.9138 18.4525C20.6769 18.8628 20.6217 19.3678 20.7835 19.8136C21.0479 20.579 21.6633 21.1471 21.9987 21.8691C21.6278 21.5416 21.2649 21.2023 20.9254 20.8434C20.5705 20.4646 20.2351 20.0622 20.0141 19.5887ZM22.0262 18.989C21.9592 19.6164 22.2866 20.2081 22.6773 20.6737C22.8666 20.8828 23.0283 21.1392 23.0362 21.4312C23.0441 21.8217 22.8233 22.1848 22.539 22.4411C22.6062 22.4333 22.6535 22.3741 22.7088 22.3425C23.1349 22.0703 23.5451 21.7271 23.7542 21.2577C23.8923 20.9381 23.8607 20.5593 23.6793 20.2633C23.4662 19.9161 23.1861 19.6084 23.0205 19.2297C22.9296 19.0167 22.8981 18.7681 22.9731 18.5432C23.0718 18.2395 23.2848 17.9909 23.5097 17.7739C24.129 17.1861 24.8786 16.7677 25.5967 16.3102C24.6893 16.5705 23.7937 16.9296 23.0283 17.4938C22.543 17.8568 22.0933 18.3617 22.0262 18.989ZM26.3385 21.9559C26.7686 21.9797 27.1906 22.2952 27.2696 22.7292C27.3446 23.1041 27.1632 23.4749 26.9303 23.7589C26.5475 24.2165 26.0307 24.5441 25.51 24.8242C25.4586 24.8556 25.4153 24.8951 25.3758 24.9386C26.0623 24.7649 26.7487 24.5047 27.3051 24.0588C27.6127 23.8023 27.885 23.4629 27.9442 23.0566C27.9994 22.7055 27.8535 22.3425 27.5931 22.1098C27.2774 21.8216 26.8317 21.7152 26.4134 21.7705C26.1727 21.802 25.9084 21.8533 25.7428 22.0545C25.9401 22.0152 26.1333 21.9362 26.3385 21.9559ZM17.7733 23.0842C18.29 23.2223 18.8227 23.2618 19.3513 23.2973C19.8248 23.3289 20.2983 23.3368 20.7757 23.3328C22.0066 23.3132 23.2454 23.2302 24.4526 22.962C24.5669 22.9344 24.6933 22.9147 24.796 22.8437C24.9971 22.7134 25.2179 22.6108 25.435 22.5082C24.4526 22.666 23.4663 22.8003 22.4721 22.8634C21.466 22.9265 20.452 22.966 19.4421 22.8989C19.1541 22.8713 18.8582 22.8555 18.5899 22.7449C18.5267 22.7174 18.4399 22.6622 18.4714 22.5793C18.5307 22.4727 18.649 22.4215 18.7516 22.3663C19.1857 22.1611 19.659 22.0467 20.1207 21.9126C19.3276 21.9007 18.5385 22.1018 17.8127 22.4136C17.6509 22.4925 17.4694 22.5556 17.3393 22.6898C17.2879 22.7449 17.2879 22.8398 17.3471 22.887C17.4655 22.9935 17.6232 23.0409 17.7733 23.0842ZM24.1647 24.1693C23.4742 24.2916 22.7797 24.4061 22.0814 24.4415C21.316 24.4928 20.5506 24.4493 19.7932 24.3705C19.6473 24.3507 19.5012 24.3271 19.3711 24.2601C19.304 24.2206 19.237 24.1575 19.2409 24.0745C19.2488 23.9444 19.3592 23.8537 19.4381 23.7589C19.1936 23.8458 18.9489 23.9364 18.7438 24.0984C18.6569 24.1654 18.5702 24.2719 18.5938 24.3902C18.6294 24.5283 18.7635 24.6111 18.8819 24.6742C19.1738 24.8242 19.5013 24.8912 19.8209 24.9504C20.6295 25.0807 21.4541 25.0847 22.2669 25.0293C23.1271 24.9622 23.9832 24.8203 24.8156 24.5756C24.5789 24.4692 24.354 24.3467 24.1647 24.1693ZM19.8287 25.5345C19.6078 25.5975 19.3829 25.6726 19.2014 25.8184C19.1105 25.8894 19.0396 26.0118 19.0831 26.1262C19.1383 26.2722 19.2764 26.3591 19.4065 26.4339C19.7459 26.6194 20.1285 26.7061 20.5033 26.7733C21.3517 26.9073 22.2235 26.8876 23.0678 26.7378C23.5688 26.643 24.0699 26.5089 24.5354 26.2999C24.2316 26.1736 23.9358 26.0315 23.6518 25.8659C23.1586 25.9526 22.6614 26.0434 22.1564 26.075C21.4897 26.1263 20.815 26.071 20.1482 25.9882C19.9904 25.9527 19.7932 25.9369 19.6867 25.7988C19.6315 25.6843 19.7577 25.6014 19.8287 25.5345ZM25.2259 28.0712C25.7782 27.9569 26.3346 27.8265 26.8395 27.5702C26.9973 27.4793 27.1906 27.3807 27.242 27.1914C27.2696 27.0099 27.0802 26.9152 26.9461 26.8402C27.0289 26.9351 27.0841 27.0731 27.0012 27.1835C26.8631 27.369 26.6265 27.4399 26.4174 27.511C25.7625 27.6964 25.0838 27.7714 24.4092 27.8464C22.622 28.0081 20.8229 28.0476 19.0358 27.8977C18.4361 27.8345 17.8244 27.7674 17.2524 27.5544C17.1617 27.5149 17.0236 27.4754 17.0236 27.3531C17.059 27.2468 17.1617 27.1874 17.2524 27.1361C17.6627 26.9271 18.1204 26.8126 18.578 26.785C18.444 26.7061 18.2861 26.6982 18.1323 26.7022C17.7495 26.714 17.3747 26.8126 17.0118 26.9351C16.7001 27.0493 16.3806 27.1757 16.1319 27.4045C16.0333 27.4912 15.9427 27.6569 16.0451 27.7754C16.203 27.945 16.4476 27.9884 16.6645 28.0396C17.8797 28.2488 19.1105 28.367 20.3416 28.4105C21.975 28.4579 23.6201 28.3869 25.2259 28.0712ZM26.8435 28.2843C26.1017 28.521 25.3325 28.6512 24.567 28.7577C23.2454 28.9234 21.9118 28.9747 20.5822 28.9353C19.7735 28.9038 18.9647 28.8485 18.1677 28.7143C18.3531 28.8405 18.582 28.8799 18.7951 28.9392C19.6907 29.1286 20.6099 29.1641 21.5213 29.1917C22.8586 29.2154 24.1961 29.1641 25.5139 28.955C26.1373 28.8447 26.7646 28.7104 27.3247 28.4184C27.6168 28.2646 27.9127 28.0278 27.9638 27.6846C27.668 28.0001 27.242 28.1462 26.8435 28.2843Z" fill="black"/>
</svg>
