<svg width="45" height="45" viewBox="0 0 45 45" fill="none" xmlns="http://www.w3.org/2000/svg">
<rect y="22.5" width="31.8199" height="31.8199" transform="rotate(-45 0 22.5)" fill="#CDFB7C"/>
<path d="M24.3106 28.3531L24.1487 28.5855L24.0923 28.8744L24.1487 29.1632L24.3106 29.3956L24.543 29.5575L24.8318 29.6139L25.1207 29.5575L25.3531 29.3956L25.515 29.1632L25.5714 28.8744L25.515 28.5855L25.3531 28.3531L25.1207 28.1912L24.8318 28.1348L24.543 28.1912L24.3106 28.3531ZM28.8715 18.3077L29.069 18.35L29.2946 18.4346L29.5412 18.5615L29.795 18.7517L30.0489 18.9982L30.2954 19.3293L30.5211 19.7451L30.7185 20.2596L30.8663 20.8801L30.965 21.6135L31 22.4805L30.9577 23.3476L30.8449 24.081L30.6756 24.6874L30.45 25.1878L30.1961 25.5894L29.9141 25.9065L29.6179 26.1389L29.3217 26.3081L29.0397 26.421L28.7858 26.4842L28.5601 26.5191L28.3909 26.5332L28.2781 26.5265H22.4834V27.1047H26.6004L26.6071 29.0504L26.6212 29.3042L26.5863 29.544L26.509 29.7623L26.3894 29.9665L26.2134 30.1425L25.9951 30.3118L25.7271 30.4528L25.4168 30.5724L25.0575 30.6779L24.6485 30.7693L24.1972 30.8325L23.6968 30.8815L23.1541 30.9097L22.5618 30.9165L21.6665 30.8883L20.9123 30.7896L20.2776 30.6485L19.7631 30.4725L19.3474 30.261L19.0303 30.0286L18.7906 29.7888L18.6146 29.5491L18.5017 29.3166L18.4312 29.1051L18.403 28.9291L18.3889 28.7881L18.3957 28.6967V24.9322L18.4312 24.4809L18.5226 24.1001L18.6704 23.7758L18.8538 23.5078L19.0653 23.2822L19.2977 23.1129L19.5443 22.9719L19.7908 22.8732L20.0232 22.8027L20.2347 22.7603L20.4181 22.7321L20.5659 22.718L20.6573 22.7113H24.7743L25.2606 22.6763L25.6763 22.5776L26.0289 22.4298L26.3177 22.2323L26.5502 22.0067L26.7403 21.7601L26.8813 21.5063L26.9868 21.2524L27.0573 21.0059L27.1064 20.7803L27.1346 20.5828L27.1487 20.435V18.2778H28.6222L28.7209 18.2846L28.8715 18.3077ZM19.6435 15.5231L19.4816 15.7556L19.4252 16.0444L19.4816 16.3332L19.6435 16.573L19.876 16.7281L20.1648 16.7913L20.4536 16.7276L20.686 16.5724L20.848 16.3327L20.9044 16.0438L20.848 15.755L20.686 15.5226L20.4536 15.3674L20.1648 15.3043L19.876 15.3674L19.6435 15.5231ZM24.0849 14.1269L24.7196 14.268L25.234 14.4513L25.6498 14.6629L25.9669 14.8885L26.2066 15.1283L26.3826 15.368L26.4954 15.6004L26.566 15.812L26.5942 15.9953L26.6083 16.1364L26.6015 16.2277V19.9922L26.5665 20.4361L26.4751 20.8237L26.3273 21.1481L26.144 21.416L25.9324 21.6343L25.7 21.8104L25.4535 21.9441L25.207 22.0428L24.9745 22.1133L24.763 22.1624L24.5797 22.1906L24.4313 22.2047H20.2229L19.7366 22.2397L19.3209 22.3384L18.9683 22.4935L18.6794 22.6836L18.447 22.9093L18.2569 23.1558L18.1159 23.4097L18.0104 23.6703L17.9399 23.9168L17.8908 24.1425L17.8626 24.3326L17.8485 24.4804V26.6376H16.2763L16.1285 26.6167L15.931 26.5676L15.7054 26.483L15.4588 26.3561L15.205 26.1728L14.9511 25.9189L14.7046 25.5945L14.4789 25.1788L14.2815 24.6643L14.1337 24.0437L14.035 23.3036L14 22.4365L14.0423 21.5768L14.1551 20.8434L14.3244 20.2302L14.55 19.7298L14.8039 19.3282L15.0859 19.0179L15.3821 18.7855L15.6783 18.6163L15.9603 18.5034L16.2142 18.4329L16.4399 18.3979L16.6091 18.3912H16.7219L16.7642 18.3979H22.5166V17.8129H18.3996L18.3929 15.8746L18.3788 15.614L18.4137 15.3742L18.491 15.1559L18.6106 14.9585L18.7866 14.7751L19.0049 14.6132L19.2729 14.4722L19.5832 14.3452L19.9425 14.2398L20.3515 14.1551L20.8028 14.0846L21.3032 14.0423L21.8459 14.0141L22.4382 14L23.3335 14.0355L24.0849 14.1269Z" fill="black"/>
</svg>
