<svg width="45" height="45" viewBox="0 0 45 45" fill="none" xmlns="http://www.w3.org/2000/svg">
<rect x="45" y="22.5" width="31.8199" height="31.8199" transform="rotate(135 45 22.5)" fill="#CDFB7C"/>
<path d="M22.6098 12C20.4627 14.1882 20.449 17.651 22.7313 19.8437L25.8487 22.962L22.9278 25.8839C23.7507 26.7108 24.3119 27.7618 24.5414 28.9057C24.7708 30.0496 24.6583 31.2357 24.2178 32.316L32.9579 23.576C33.0385 23.4954 33.1025 23.3997 33.1462 23.2943C33.1898 23.189 33.2123 23.0761 33.2123 22.962C33.2123 22.848 33.1898 22.7351 33.1462 22.6297C33.1025 22.5244 33.0385 22.4287 32.9579 22.3481L22.6098 12ZM21.0127 13.5898L12.2545 22.349C12.1738 22.4296 12.1098 22.5253 12.0661 22.6306C12.0225 22.736 12 22.8489 12 22.9629C12 23.077 12.0225 23.1899 12.0661 23.2952C12.1098 23.4006 12.1738 23.4963 12.2545 23.5769C15.7081 27.0205 19.1525 30.496 22.6062 33.9277C24.703 31.8281 24.7944 28.3581 22.5331 26.1315L19.3627 22.962L22.2864 20.0383C20.534 18.2521 20.1274 15.7213 21.0127 13.5907V13.5898Z" fill="black"/>
</svg>
