<svg width="45" height="45" viewBox="0 0 45 45" fill="none" xmlns="http://www.w3.org/2000/svg">
<rect x="45" y="22.5" width="31.8199" height="31.8199" transform="rotate(135 45 22.5)" fill="#CDFB7C"/>
<path d="M21.9845 12.1405C22.3031 11.9532 22.6969 11.9532 23.0155 12.1405L31.4924 17.1249C31.8067 17.3097 32 17.6488 32 18.0156V27.9844C32 28.3512 31.8067 28.6903 31.4924 28.8751L23.0155 33.8594C22.6969 34.0469 22.3031 34.0469 21.9845 33.8594L13.5076 28.8751C13.1933 28.6903 13 28.3512 13 27.9844V18.0156C13 17.6488 13.1933 17.3097 13.5076 17.1249L21.9845 12.1405ZM15.0462 18.6079V27.392L22.5 31.7748L29.9538 27.392V18.6079L22.5 14.2251L15.0462 18.6079ZM18.4059 18.266C18.7882 18.1064 19.2283 18.1946 19.5209 18.4895L25.277 24.2916V19.2187C25.277 18.6492 25.735 18.1875 26.3 18.1875C26.865 18.1875 27.323 18.6492 27.323 19.2187V26.7812C27.323 27.1983 27.0738 27.5743 26.6915 27.734C26.3092 27.8936 25.8691 27.8053 25.5765 27.5104L19.8205 21.7084V26.7812C19.8205 27.3508 19.3625 27.8125 18.7974 27.8125C18.2324 27.8125 17.7744 27.3508 17.7744 26.7812V19.2187C17.7744 18.8016 18.0236 18.4256 18.4059 18.266Z" fill="black"/>
</svg>
