<svg width="45" height="45" viewBox="0 0 45 45" fill="none" xmlns="http://www.w3.org/2000/svg">
<rect x="45" y="22.5" width="31.8199" height="31.8199" transform="rotate(135 45 22.5)" fill="#CDFB7C"/>
<path d="M18.25 21.0005V22.8338C18.25 23.445 18.6167 24.6671 20.0833 24.6671C21.55 24.6671 21.9167 23.445 21.9167 22.8338V21.0005M24.6666 21.0005L26.0416 22.8338M26.0416 22.8338L27.4166 24.6671M26.0416 22.8338L27.4166 21.0005M26.0416 22.8338L24.6666 24.6671" stroke="black" stroke-width="1.83333" stroke-linecap="round" stroke-linejoin="round"/>
<path d="M22.8334 32.0002C27.896 32.0002 32 27.8962 32 22.8336C32 17.771 27.896 13.667 22.8334 13.667C17.7708 13.667 13.6667 17.771 13.6667 22.8336C13.6667 27.8962 17.7708 32.0002 22.8334 32.0002Z" stroke="black" stroke-width="1.83333" stroke-linecap="round" stroke-linejoin="round"/>
</svg>
