<svg width="45" height="45" viewBox="0 0 45 45" fill="none" xmlns="http://www.w3.org/2000/svg">
<rect x="45" y="22.5" width="31.8199" height="31.8199" transform="rotate(135 45 22.5)" fill="#CDFB7C"/>
<path d="M22.8903 27.3124C22.8903 27.3124 22.8903 21.0938 23.0948 21.0944C23.253 21.0944 23.4586 29.116 23.4586 29.116C23.1757 29.0824 22.8903 27.7962 22.8903 27.3124ZM26.8544 21.1664C26.308 18.756 25.1113 16.6835 23.461 15.084L23.4569 15.0804C23.2559 14.7707 23.0722 14.4153 22.9248 14.0408L22.9105 14C22.9111 14.012 22.9111 14.0264 22.9111 14.0408C22.9111 14.3799 22.7607 14.683 22.5235 14.8865L22.5217 14.8877C20.397 16.7087 19.0452 19.3922 19.0006 22.395V22.4028C19 22.44 19 22.4838 19 22.5276C19 25.5028 20.4178 28.1437 22.6085 29.7991L22.6317 29.8159L22.6834 29.8537C22.7789 30.5675 22.8606 31.283 22.9284 32H23.2857C23.3843 31.1051 23.5175 30.3218 23.6917 29.5536L23.6643 29.697C23.8998 29.532 24.1054 29.3609 24.2975 29.1755L24.2957 29.1773C25.9608 27.6185 27 25.3978 27 22.9328C27 22.8962 27 22.8602 26.9994 22.8235V22.8289C26.9976 22.2401 26.9447 21.6646 26.8442 21.1058L26.8532 21.1652L26.8544 21.1664Z" fill="black"/>
</svg>
