<svg width="45" height="45" viewBox="0 0 45 45" fill="none" xmlns="http://www.w3.org/2000/svg">
<rect y="22.5" width="31.8199" height="31.8199" transform="rotate(-45 0 22.5)" fill="#CDFB7C"/>
<path d="M29.5303 24.3977C29.4409 24.3772 29.3535 24.3491 29.269 24.3136C29.1997 24.2833 29.1368 24.2402 29.0835 24.1866C29.1347 23.7407 29.0835 23.3534 29.1265 22.9148C29.2946 21.2136 30.3645 21.7526 31.3247 21.474C31.9232 21.3059 32.5216 20.9605 32.6724 20.2533C32.0261 19.4964 31.2907 18.8202 30.4823 18.2396C27.8784 16.3867 24.476 15.6448 21.3841 16.1592C21.857 16.9843 22.5703 17.6453 23.4289 18.0542C23.4289 18.0542 22.5911 18.0542 21.873 17.5178C21.6628 17.6019 21.2407 17.7682 21.0388 17.8687C21.8412 18.6401 22.8935 19.0983 24.0049 19.1604C25.1163 19.2224 26.213 18.8841 27.0963 18.2067C27.0872 18.2223 26.9273 18.4671 26.7336 19.4858C26.3042 21.6603 25.0653 21.4913 23.5322 20.944C20.3481 19.7892 18.5957 20.8591 17.0041 18.669C16.5409 18.9303 16.2549 19.4182 16.2549 19.95C16.2549 20.4973 16.5573 20.9605 16.995 21.2136C17.2343 20.8956 17.3421 20.8061 17.7588 20.8061C17.1137 21.1715 17.037 21.4913 16.7592 22.3757C16.423 23.4456 16.5655 24.5411 14.9904 24.8271C14.1562 24.8691 14.1736 25.4337 13.8703 26.2761C13.4911 27.3716 12.9858 27.8092 12 28.8453C12.4047 29.3341 12.8259 29.3935 13.2554 29.2163C14.1398 28.8453 14.8223 27.6996 15.4618 26.9586C16.1781 26.1327 17.8967 26.4863 19.1941 25.6777C20.0868 25.1304 20.5253 24.3894 19.9351 23.1341C20.3147 23.5522 20.5406 24.0871 20.5756 24.6507C22.0749 24.4561 24.0803 26.2844 25.9077 26.5877C25.7262 26.359 25.5763 26.107 25.4618 25.8385C25.2516 25.3323 25.184 24.87 25.2261 24.4653C25.3942 25.4675 26.4047 26.7558 28.031 26.8746C28.444 26.9075 28.899 26.8572 29.3704 26.7138C29.935 26.5457 30.4577 26.3264 31.0808 26.4442C31.544 26.5292 31.9734 26.764 32.2429 27.1606C32.6477 27.7499 33.5312 27.8769 33.9277 27.1523C33.0351 24.8189 30.5746 24.6672 29.5303 24.3977Z" fill="black"/>
</svg>
