<svg width="45" height="45" viewBox="0 0 45 45" fill="none" xmlns="http://www.w3.org/2000/svg">
<rect y="22.5" width="31.8199" height="31.8199" transform="rotate(-45 0 22.5)" fill="#CDFB7C"/>
<g clip-path="url(#clip0_33_847)">
<path fill-rule="evenodd" clip-rule="evenodd" d="M22.5 15C27.1946 15 31 18.9014 31 23.715C31 27.5646 28.5673 30.8304 25.1919 31.9838C24.761 32.0697 24.608 31.7975 24.608 31.5655C24.608 31.2782 24.6182 30.3398 24.6182 29.1736C24.6182 28.361 24.3462 27.8306 24.0411 27.5603C25.934 27.3444 27.923 26.6074 27.923 23.2601C27.923 22.3081 27.5932 21.5312 27.0475 20.9209C27.1359 20.7008 27.4274 19.8144 26.9642 18.6142C26.9642 18.6142 26.2519 18.3806 24.6292 19.5077C23.9501 19.3148 23.2225 19.2177 22.5 19.2143C21.7775 19.2177 21.0508 19.3148 20.3725 19.5077C18.7481 18.3806 18.0341 18.6142 18.0341 18.6142C17.5726 19.8144 17.8641 20.7008 17.9517 20.9209C17.4085 21.5312 17.0762 22.3081 17.0762 23.2601C17.0762 26.5989 19.0609 27.3472 20.9488 27.5674C20.7057 27.785 20.4855 28.1688 20.409 28.7324C19.9245 28.9551 18.6937 29.3405 17.9355 28.0086C17.9355 28.0086 17.4859 27.1712 16.6325 27.11C16.6325 27.11 15.8037 27.099 16.5746 27.6396C16.5746 27.6396 17.1314 27.9073 17.5182 28.9146C17.5182 28.9146 18.0171 30.4701 20.3818 29.9431C20.3861 30.6715 20.3937 31.3581 20.3937 31.5655C20.3937 31.7958 20.2373 32.0654 19.8131 31.9846C16.4352 30.8329 14 27.5655 14 23.715C14 18.9014 17.8063 15 22.5 15Z" fill="black"/>
</g>
<defs>
<clipPath id="clip0_33_847">
<rect width="17" height="17" fill="white" transform="translate(14 15)"/>
</clipPath>
</defs>
</svg>
