<svg width="45" height="45" viewBox="0 0 45 45" fill="none" xmlns="http://www.w3.org/2000/svg">
<rect x="45" y="22.5" width="31.8199" height="31.8199" transform="rotate(135 45 22.5)" fill="#CDFB7C"/>
<path d="M28.2717 21.2827H17.8629C17.3863 21.2827 17 20.8964 17 20.4198V13.5582C17 13.0816 17.3863 12.6953 17.8629 12.6953H28.2717C28.7482 12.6953 29.1345 13.0816 29.1345 13.5582V20.4197C29.1345 20.8963 28.7482 21.2827 28.2717 21.2827Z" fill="#CFF09E"/>
<path d="M28.1683 21.9782H17.7595C16.9003 21.9782 16.2012 21.2791 16.2012 20.4199V13.5583C16.2012 12.6991 16.9002 12 17.7595 12H28.1683C29.0275 12 29.7265 12.6991 29.7265 13.5583V20.4199C29.7265 21.2791 29.0275 21.9782 28.1683 21.9782ZM17.7595 13.3909C17.6672 13.3909 17.592 13.466 17.592 13.5583V20.4199C17.592 20.5122 17.6672 20.5873 17.7595 20.5873H28.1683C28.2606 20.5873 28.3356 20.5122 28.3356 20.4199V13.5583C28.3356 13.466 28.2605 13.3909 28.1683 13.3909H17.7595Z" fill="#507C5C"/>
<path d="M31.3782 29.8185C30.9942 29.8185 30.6828 29.5071 30.6828 29.1231V26.0289C30.6828 25.6647 30.3864 25.3684 30.0222 25.3684H15.9054C15.5412 25.3684 15.2449 25.6647 15.2449 26.0289V29.1231C15.2449 29.5071 14.9335 29.8185 14.5494 29.8185C14.1654 29.8185 13.854 29.5071 13.854 29.1231V26.0289C13.854 24.8977 14.7742 23.9775 15.9054 23.9775H30.0222C31.1534 23.9775 32.0737 24.8977 32.0737 26.0289V29.1231C32.0736 29.5072 31.7622 29.8185 31.3782 29.8185Z" fill="#507C5C"/>
<path d="M22.964 27.5938C22.5799 27.5938 22.2686 27.2824 22.2686 26.8984V21.2828C22.2686 20.8988 22.5799 20.5874 22.964 20.5874C23.348 20.5874 23.6594 20.8988 23.6594 21.2828V26.8984C23.6594 27.2825 23.348 27.5938 22.964 27.5938Z" fill="#507C5C"/>
<path d="M14.5495 33.8753C13.1437 33.8753 12 32.7316 12 31.3258C12 29.92 13.1437 28.7764 14.5495 28.7764C15.9553 28.7764 17.099 29.92 17.099 31.3258C17.099 32.7316 15.9552 33.8753 14.5495 33.8753ZM14.5495 30.1672C13.9106 30.1672 13.3908 30.687 13.3908 31.3258C13.3908 31.9646 13.9106 32.4845 14.5495 32.4845C15.1884 32.4845 15.7081 31.9646 15.7081 31.3258C15.7081 30.687 15.1883 30.1672 14.5495 30.1672Z" fill="#507C5C"/>
<path d="M24.8179 33.8753H21.1097C20.7257 33.8753 20.4143 33.5639 20.4143 33.1799V29.4718C20.4143 29.0878 20.7257 28.7764 21.1097 28.7764H24.8179C25.2019 28.7764 25.5133 29.0878 25.5133 29.4718C25.5133 29.8558 25.2019 30.1672 24.8179 30.1672H21.8052V32.4845H24.1225V31.5345C24.1225 31.1505 24.4339 30.8391 24.8179 30.8391C25.202 30.8391 25.5134 31.1505 25.5134 31.5345V33.1799C25.5133 33.564 25.2019 33.8753 24.8179 33.8753Z" fill="#507C5C"/>
<path d="M31.3781 33.8753C29.9723 33.8753 28.8286 32.7316 28.8286 31.3258C28.8286 29.92 29.9723 28.7764 31.3781 28.7764C32.7839 28.7764 33.9276 29.92 33.9276 31.3258C33.9276 32.7316 32.7839 33.8753 31.3781 33.8753ZM31.3781 30.1672C30.7392 30.1672 30.2194 30.687 30.2194 31.3258C30.2194 31.9646 30.7393 32.4845 31.3781 32.4845C32.0169 32.4845 32.5368 31.9646 32.5368 31.3258C32.5367 30.687 32.0169 30.1672 31.3781 30.1672Z" fill="#507C5C"/>
<path d="M21.1097 32.2297H16.4034C16.0194 32.2297 15.708 31.9183 15.708 31.5343C15.708 31.1503 16.0194 30.8389 16.4034 30.8389H21.1097C21.4938 30.8389 21.8052 31.1503 21.8052 31.5343C21.8052 31.9183 21.4938 32.2297 21.1097 32.2297Z" fill="#507C5C"/>
<path d="M27.1594 32.2297H24.818C24.434 32.2297 24.1226 31.9183 24.1226 31.5343C24.1226 31.1503 24.434 30.8389 24.818 30.8389H27.1594C27.5434 30.8389 27.8549 31.1503 27.8549 31.5343C27.8548 31.9183 27.5434 32.2297 27.1594 32.2297Z" fill="#507C5C"/>
</svg>
