<svg width="45" height="45" viewBox="0 0 45 45" fill="none" xmlns="http://www.w3.org/2000/svg">
<rect y="22.5" width="31.8199" height="31.8199" transform="rotate(-45 0 22.5)" fill="#CDFB7C"/>
<path d="M31.0942 14.092C30.7985 14.7973 30.424 15.4657 29.9734 16.08C27.997 14.1073 25.3186 12.9996 22.5262 13C16.7521 13 12 17.7512 12 23.5271C12 26.4085 13.1812 29.1665 15.2699 31.1545L15.6584 31.4984C17.5566 33.0966 19.9581 33.9736 22.4396 33.9746C27.9303 33.9746 32.5459 29.6775 32.937 24.1991C33.224 21.5172 32.4365 18.1249 31.0942 14.092ZM16.7661 31.2149C16.5964 31.4249 16.3374 31.5474 16.0661 31.5474C15.8276 31.5462 15.5992 31.4508 15.4307 31.282C15.2622 31.1132 15.1673 30.8846 15.1666 30.6461C15.1666 30.1526 15.5735 29.7449 16.0661 29.7449C16.2363 29.7454 16.4029 29.794 16.5466 29.8851C16.6904 29.9762 16.8055 30.106 16.8786 30.2596C16.9518 30.4133 16.98 30.5845 16.9601 30.7535C16.9402 30.9225 16.873 31.0824 16.7661 31.2149ZM31.0505 28.0631C28.4526 31.5229 22.9043 30.3574 19.3474 30.5236C19.3474 30.5236 18.7156 30.5621 18.0812 30.6654C18.0812 30.6654 18.3192 30.5647 18.6281 30.4466C21.1245 29.5786 22.3057 29.4097 23.823 28.631C26.6807 27.1785 29.5052 23.9996 30.0933 20.693C29.0047 23.8745 25.7078 26.608 22.7021 27.7192C20.6433 28.4779 16.9245 29.2155 16.9245 29.2155L16.774 29.1367C14.2417 27.9047 14.1656 22.4237 18.7673 20.6545C20.7824 19.8792 22.7109 20.3045 24.887 19.7865C27.211 19.2352 29.899 17.4922 30.9928 15.2199C32.2177 18.8546 33.6921 24.5456 31.0505 28.0631Z" fill="black"/>
</svg>
