<svg width="45" height="45" viewBox="0 0 45 45" fill="none" xmlns="http://www.w3.org/2000/svg">
<rect y="22.5" width="31.8199" height="31.8199" transform="rotate(-45 0 22.5)" fill="#CDFB7C"/>
<g clip-path="url(#clip0_33_850)">
<mask id="mask0_33_850" style="mask-type:luminance" maskUnits="userSpaceOnUse" x="12" y="12" width="22" height="22">
<path d="M34 12H12V34H34V12Z" fill="white"/>
</mask>
<g mask="url(#mask0_33_850)">
<path d="M34 22.7148C34 21.2573 32.1749 19.8761 29.3767 19.0196C30.0224 16.1676 29.7354 13.8986 28.4709 13.1721C28.1794 13.0017 27.8385 12.921 27.4664 12.921V13.921C27.6726 13.921 27.8385 13.9613 27.9776 14.0376C28.5875 14.3874 28.852 15.7192 28.6458 17.4322C28.5964 17.8537 28.5157 18.2977 28.417 18.7506C27.5381 18.5353 26.5785 18.3694 25.5695 18.2618C24.9641 17.4322 24.3363 16.6788 23.704 16.0196C25.1659 14.6609 26.5382 13.9165 27.4709 13.9165V12.9165C26.2377 12.9165 24.6233 13.7954 22.991 15.3201C21.3587 13.8044 19.7444 12.9344 18.5112 12.9344V13.9344C19.4395 13.9344 20.8161 14.6743 22.278 16.0241C21.6502 16.6833 21.0224 17.4322 20.426 18.2618C19.4126 18.3694 18.4529 18.5353 17.574 18.7551C17.4708 18.3066 17.3946 17.8717 17.3408 17.4546C17.13 15.7416 17.3901 14.4098 17.9955 14.0555C18.13 13.9748 18.3049 13.9389 18.5112 13.9389V12.9389C18.1345 12.9389 17.7937 13.0196 17.4978 13.19C16.2377 13.9165 15.9552 16.1811 16.6054 19.0241C13.8161 19.8851 12 21.2618 12 22.7148C12 24.1721 13.8251 25.5533 16.6233 26.4097C15.9776 29.2618 16.2646 31.5309 17.5292 32.2573C17.8206 32.4278 18.1614 32.5084 18.5381 32.5084C19.7713 32.5084 21.3857 31.6295 23.018 30.1048C24.6502 31.6205 26.2646 32.4905 27.4977 32.4905C27.8745 32.4905 28.2153 32.4098 28.5112 32.2394C29.7713 31.5129 30.0538 29.2484 29.4036 26.4053C32.1839 25.5488 34 24.1677 34 22.7148ZM28.1615 19.7237C27.9956 20.3022 27.7892 20.8986 27.556 21.4949C27.3722 21.1362 27.1794 20.7775 26.9686 20.4188C26.7624 20.06 26.5426 19.7102 26.3229 19.3694C26.9596 19.4636 27.574 19.5802 28.1615 19.7237ZM26.1076 24.4995C25.7579 25.1049 25.3991 25.6788 25.0269 26.2125C24.3588 26.2708 23.6816 26.3021 23 26.3021C22.3229 26.3021 21.6457 26.2708 20.9821 26.217C20.6099 25.6833 20.2466 25.1139 19.8969 24.5129C19.5561 23.9255 19.2466 23.3291 18.9641 22.7281C19.2422 22.1273 19.5561 21.5264 19.8924 20.9389C20.2422 20.3335 20.6009 19.7596 20.9731 19.2259C21.6412 19.1676 22.3184 19.1362 23 19.1362C23.6771 19.1362 24.3543 19.1676 25.018 19.2214C25.3901 19.7551 25.7534 20.3246 26.1031 20.9255C26.4439 21.5129 26.7534 22.1093 27.0359 22.7103C26.7534 23.3111 26.4439 23.912 26.1076 24.4995ZM27.556 23.9165C27.7982 24.5174 28.0044 25.1183 28.1749 25.7013C27.5875 25.8447 26.9686 25.9658 26.3273 26.06C26.547 25.7147 26.7669 25.3604 26.9731 24.9973C27.1794 24.6385 27.3722 24.2753 27.556 23.9165ZM23.009 28.7012C22.5919 28.2708 22.1749 27.791 21.7623 27.2663C22.1659 27.2842 22.5785 27.2976 22.9955 27.2976C23.4171 27.2976 23.8341 27.2887 24.2422 27.2663C23.8386 27.791 23.4215 28.2708 23.009 28.7012ZM19.6726 26.06C19.0359 25.9658 18.4215 25.8492 17.8341 25.7057C18 25.1272 18.2063 24.5309 18.4395 23.9345C18.6233 24.2932 18.8161 24.6519 19.0269 25.0106C19.2377 25.3694 19.4529 25.7192 19.6726 26.06ZM22.9865 16.7282C23.4036 17.1587 23.8206 17.6385 24.2332 18.1631C23.8296 18.1452 23.4171 18.1318 23 18.1318C22.5785 18.1318 22.1614 18.1407 21.7533 18.1631C22.1569 17.6385 22.574 17.1587 22.9865 16.7282ZM19.6682 19.3694C19.4484 19.7147 19.2287 20.069 19.0224 20.4322C18.8161 20.7909 18.6233 21.1497 18.4395 21.5084C18.1973 20.9075 17.991 20.3066 17.8206 19.7237C18.4081 19.5847 19.0269 19.4636 19.6682 19.3694ZM15.6099 24.9838C14.0224 24.3066 12.9955 23.4188 12.9955 22.7148C12.9955 22.0107 14.0224 21.1183 15.6099 20.4457C15.9955 20.2797 16.417 20.1318 16.852 19.9927C17.1076 20.8717 17.4439 21.7864 17.861 22.7236C17.4484 23.6564 17.1166 24.5667 16.8655 25.4412C16.4215 25.3021 16 25.1497 15.6099 24.9838ZM18.0224 31.3918C17.4126 31.042 17.148 29.7102 17.3543 27.9972C17.4036 27.5757 17.4843 27.1317 17.583 26.6789C18.4619 26.8941 19.4215 27.06 20.4305 27.1676C21.0359 27.9972 21.6637 28.7505 22.296 29.4098C20.8341 30.7685 19.4619 31.5129 18.5292 31.5129C18.3274 31.5084 18.1569 31.4681 18.0224 31.3918ZM28.6592 27.9748C28.87 29.6878 28.6099 31.0197 28.0044 31.3739C27.87 31.4546 27.6951 31.4905 27.4888 31.4905C26.5605 31.4905 25.1839 30.7506 23.722 29.4008C24.3498 28.7417 24.9776 27.9927 25.574 27.1632C26.5875 27.0555 27.5471 26.8896 28.426 26.6699C28.5292 27.1228 28.6099 27.5578 28.6592 27.9748ZM30.3857 24.9838C30 25.1497 29.5785 25.2976 29.1435 25.4367C28.8879 24.5578 28.5516 23.643 28.1345 22.7058C28.5471 21.773 28.879 20.8627 29.13 19.9883C29.574 20.1273 29.9955 20.2797 30.3902 20.4457C31.9776 21.1228 33.0045 22.0107 33.0045 22.7148C33 23.4188 31.9731 24.3111 30.3857 24.9838Z" fill="black"/>
<path d="M22.9956 24.7642C24.1274 24.7642 25.0449 23.8467 25.0449 22.7149C25.0449 21.583 24.1274 20.6655 22.9956 20.6655C21.8638 20.6655 20.9463 21.583 20.9463 22.7149C20.9463 23.8467 21.8638 24.7642 22.9956 24.7642Z" fill="black"/>
</g>
</g>
<defs>
<clipPath id="clip0_33_850">
<rect width="22" height="22" fill="white" transform="translate(12 12)"/>
</clipPath>
</defs>
</svg>
