<svg width="45" height="45" viewBox="0 0 45 45" fill="none" xmlns="http://www.w3.org/2000/svg">
<rect y="22.5" width="31.8199" height="31.8199" transform="rotate(-45 0 22.5)" fill="#CDFB7C"/>
<path d="M12.0968 29.222C11.905 29.5509 12.0055 29.9712 12.3344 30.1722L16.8661 32.968C17.195 33.169 17.6244 33.0685 17.8254 32.7396V32.7304C20.7035 27.9246 21.2699 28.619 29.8583 32.703C30.2055 32.8675 30.6166 32.7213 30.7902 32.3741C30.7902 32.3741 30.7902 32.365 30.7993 32.3558L32.9556 27.4678C33.1109 27.1206 32.9556 26.7094 32.6084 26.5541C31.6582 26.1064 29.776 25.2202 28.0766 24.3979C17.46 19.2357 13.9059 26.3622 12.0968 29.222ZM33.8235 15.8552C34.0154 15.5263 33.9149 15.106 33.586 14.905L29.0634 12.1184C28.7436 11.9082 28.3051 11.9813 28.0949 12.3102C28.0858 12.3194 28.0766 12.3376 28.0675 12.3559C25.1804 17.18 24.5956 16.4491 16.053 12.3925C15.6966 12.2189 15.2855 12.3651 15.121 12.7122C15.121 12.7122 15.121 12.7214 15.1119 12.7305L12.9465 17.6186C12.7912 17.9658 12.9465 18.3769 13.2937 18.5322C14.2439 18.9799 16.1352 19.8662 17.8346 20.6885C28.4512 25.8323 32.0054 18.7424 33.8235 15.8552Z" fill="black"/>
</svg>
