<svg width="45" height="45" viewBox="0 0 45 45" fill="none" xmlns="http://www.w3.org/2000/svg">
<rect x="45" y="22.5" width="31.8199" height="31.8199" transform="rotate(135 45 22.5)" fill="#CDFB7C"/>
<path fill-rule="evenodd" clip-rule="evenodd" d="M19.6711 13C19.0212 13 18.4202 13.3452 18.0927 13.9066L12.2489 23.9245C11.8972 24.5275 11.9197 25.2781 12.3069 25.8589L15.3739 30.4594C15.7128 30.9678 16.2834 31.2731 16.8943 31.2731H28.7075C29.3185 31.2731 29.8891 30.9678 30.228 30.4594L33.295 25.8589C33.6822 25.2781 33.7047 24.5275 33.3529 23.9245L27.5092 13.9066C27.1817 13.3452 26.5807 13 25.9308 13H19.6711ZM20.7948 14.8273H25.9308L31.2605 23.9639H26.5051L20.7948 14.8273ZM24.3502 23.9639L22.7176 21.3516L21.1938 23.9639H24.3502ZM20.1279 25.7912L17.9961 29.4458H28.7075L31.144 25.7912H20.1279ZM21.6234 19.6009L16.3537 28.6348L13.8273 24.8453L19.1733 15.6807L21.6234 19.6009Z" fill="black"/>
</svg>
