<svg width="45" height="45" viewBox="0 0 45 45" fill="none" xmlns="http://www.w3.org/2000/svg">
<rect y="22.5" width="31.8199" height="31.8199" transform="rotate(-45 0 22.5)" fill="#CDFB7C"/>
<path d="M21.5826 17.153V19.249H18.6427V27.8929H15.9399V19.249H13V17.153H21.5826Z" fill="#171C21"/>
<path d="M26.9537 28C26.1423 28 25.4153 27.8725 24.7725 27.6175C24.1297 27.3625 23.6134 26.9852 23.2235 26.4854C22.8442 25.9856 22.644 25.3839 22.6229 24.6801H25.4996C25.5417 25.0779 25.684 25.3839 25.9263 25.5981C26.1687 25.802 26.4848 25.904 26.8747 25.904C27.2751 25.904 27.5912 25.8173 27.823 25.6439C28.0548 25.4604 28.1708 25.2105 28.1708 24.8943C28.1708 24.6291 28.0759 24.4098 27.8863 24.2364C27.7071 24.0631 27.4806 23.9203 27.2066 23.8081C26.9432 23.6959 26.5638 23.5684 26.0686 23.4256C25.352 23.2114 24.7672 22.9972 24.3141 22.783C23.861 22.5688 23.4712 22.2527 23.1445 21.8345C22.8178 21.4163 22.6545 20.8707 22.6545 20.1975C22.6545 19.198 23.0286 18.4177 23.7767 17.8567C24.5249 17.2856 25.4996 17 26.7008 17C27.9231 17 28.9084 17.2856 29.6565 17.8567C30.4046 18.4177 30.8051 19.2031 30.8577 20.2128H27.9337C27.9126 19.866 27.7809 19.5957 27.5385 19.4019C27.2962 19.198 26.9853 19.096 26.606 19.096C26.2793 19.096 26.0159 19.1827 25.8157 19.356C25.6155 19.5192 25.5154 19.7589 25.5154 20.0751C25.5154 20.4219 25.684 20.6922 26.0212 20.886C26.3584 21.0797 26.8852 21.2888 27.6017 21.5132C28.3183 21.7478 28.8978 21.9722 29.3404 22.1864C29.7935 22.4006 30.1834 22.7116 30.51 23.1196C30.8367 23.5276 31 24.0529 31 24.6954C31 25.3074 30.8367 25.8632 30.51 26.363C30.1939 26.8628 29.7303 27.2605 29.1191 27.5563C28.5079 27.8521 27.7861 28 26.9537 28Z" fill="#171C21"/>
</svg>
