<svg width="45" height="45" viewBox="0 0 45 45" fill="none" xmlns="http://www.w3.org/2000/svg">
<rect x="45" y="22.5" width="31.8199" height="31.8199" transform="rotate(135 45 22.5)" fill="#CDFB7C"/>
<path d="M13.0195 19.9286H20.2835C20.4671 19.9286 20.6158 19.7798 20.6158 19.5963V12.3322C20.6158 12.1488 20.4671 12 20.2835 12H13.0195C12.8359 12 12.6873 12.1488 12.6873 12.3322V19.5963C12.6873 19.7799 12.8359 19.9286 13.0195 19.9286Z" fill="black"/>
<path d="M16.8863 24.7223C16.7567 24.5926 16.5462 24.5926 16.4165 24.7223L12.0973 29.0415C11.9676 29.1713 11.9676 29.3816 12.0973 29.5113L16.4165 33.8305C16.4814 33.8954 16.5664 33.9278 16.6514 33.9278C16.7364 33.9278 16.8215 33.8954 16.8863 33.8305L21.2055 29.5113C21.3353 29.3816 21.3353 29.1712 21.2055 29.0415L16.8863 24.7223Z" fill="black"/>
<path d="M27.2722 19.9192H31.4551C31.5738 19.9192 31.6835 19.8558 31.7429 19.753L33.8342 16.1306C33.8936 16.0278 33.8936 15.9012 33.8342 15.7984L31.7429 12.1759C31.6835 12.0731 31.5738 12.0098 31.4551 12.0098H27.2722C27.1535 12.0098 27.0438 12.0731 26.9845 12.1759L24.8931 15.7984C24.8338 15.9012 24.8338 16.0278 24.8931 16.1306L26.9845 19.753C27.0439 19.8558 27.1535 19.9192 27.2722 19.9192Z" fill="black"/>
<path d="M29.6551 25.0527C27.3261 25.0527 25.4314 26.9474 25.4314 29.2763C25.4314 31.6052 27.3261 33.5 29.6551 33.5C31.9841 33.5 33.8788 31.6053 33.8788 29.2763C33.8788 26.9474 31.984 25.0527 29.6551 25.0527Z" fill="black"/>
<path d="M16.3192 20.4058C16.1908 20.4058 16.0867 20.5099 16.0867 20.6383V23.695C16.0867 23.8234 16.1908 23.9276 16.3192 23.9276H16.8508C16.9793 23.9276 17.0834 23.8234 17.0834 23.695V20.6383C17.0834 20.5099 16.9793 20.4058 16.8508 20.4058H16.3192Z" fill="black"/>
<path d="M29.3227 20.5161C29.1942 20.5161 29.0901 20.6202 29.0901 20.7487V23.8053C29.0901 23.9338 29.1942 24.0379 29.3227 24.0379H29.8543C29.9827 24.0379 30.0868 23.9338 30.0868 23.8053V20.7487C30.0868 20.6202 29.9827 20.5161 29.8543 20.5161H29.3227Z" fill="black"/>
<path d="M24.0192 15.5444H21.6989C21.5704 15.5444 21.4663 15.6486 21.4663 15.777V16.3086C21.4663 16.437 21.5704 16.5412 21.6989 16.5412H24.0192C24.1475 16.5412 24.2517 16.437 24.2517 16.3086V15.777C24.2517 15.6486 24.1475 15.5444 24.0192 15.5444Z" fill="black"/>
</svg>
