<svg width="45" height="45" viewBox="0 0 45 45" fill="none" xmlns="http://www.w3.org/2000/svg">
<rect x="45" y="22.5" width="31.8199" height="31.8199" transform="rotate(135 45 22.5)" fill="#CDFB7C"/>
<path d="M30.8041 15.3784H15.1959C14.535 15.3784 14 15.914 14 16.5743V26.5576C14 27.2178 14.535 27.7535 15.1959 27.7535H21.7344V28.0199C21.7344 28.6801 21.1993 29.2157 20.5385 29.2157H18.7812V30.622H21.3543H24.6458H27.2188V29.2157H25.4615C24.8007 29.2157 24.2656 28.6802 24.2656 28.0199V27.7535H30.8041C31.465 27.7535 32 27.2179 32 26.5576V16.5743C32 15.914 31.465 15.3784 30.8041 15.3784ZM30.3125 25.1046C30.3125 25.3249 30.134 25.5034 29.9137 25.5034H16.0863C15.866 25.5034 15.6875 25.3249 15.6875 25.1046V17.4647C15.6875 17.2444 15.866 17.0659 16.0863 17.0659H29.9137C30.134 17.0659 30.3125 17.2444 30.3125 17.4647V25.1046H30.3125Z" fill="black"/>
</svg>
