<svg width="45" height="45" viewBox="0 0 45 45" fill="none" xmlns="http://www.w3.org/2000/svg">
<rect x="45" y="22.5" width="31.8199" height="31.8199" transform="rotate(135 45 22.5)" fill="#CDFB7C"/>
<path fill-rule="evenodd" clip-rule="evenodd" d="M20.6886 21.9124C20.6933 23.8113 20.699 27.0377 20.7038 29.5453C24.1371 30.0096 27.5705 30.4882 30.9981 31C30.9981 28.0063 31.0019 25.0257 30.9981 22.1772C27.5619 22.1772 24.1267 21.9124 20.6886 21.9124ZM12 21.9133V28.3606C14.5895 28.71 17.179 29.0439 19.7638 29.4256C19.7686 26.9314 19.7619 24.4363 19.7619 21.9421C17.1743 21.9468 14.5876 21.9048 12 21.9133ZM12 14.7011V21.1303C14.5895 21.1369 17.179 21.0978 19.7686 21.1006C19.7667 18.612 19.7667 16.1265 19.7638 13.6379C17.1724 13.9617 14.581 14.3042 12 14.7011ZM31 20.9981C27.5686 21.0114 24.1371 21.0637 20.7038 21.0742C20.7019 18.5448 20.7019 16.0184 20.7038 13.4909C24.1305 12.9677 27.5648 12.4757 30.9981 12C31 15.0003 30.9981 17.9977 31 20.9981Z" fill="black"/>
</svg>
