<svg width="45" height="45" viewBox="0 0 45 45" fill="none" xmlns="http://www.w3.org/2000/svg">
<rect x="45" y="22.5" width="31.8199" height="31.8199" transform="rotate(135 45 22.5)" fill="#CDFB7C"/>
<path d="M21.8213 20.6885C21.8213 19.3593 21.0411 18.2642 19.5506 18.0195C19.3454 18.0878 19.1271 18.1261 18.8993 18.1261C18.6715 18.1261 18.4525 18.0878 18.2473 18.0195C16.7571 18.2642 15.9773 19.3593 15.9773 20.6885H18.8993H21.8213Z" fill="black"/>
<path d="M18.8994 17.6521C19.7825 17.6521 20.4984 16.9363 20.4984 16.0532V15.5994C20.4984 14.7159 19.7825 14 18.8994 14C18.016 14 17.3 14.7159 17.3 15.5994V16.0532C17.3 16.9363 18.016 17.6521 18.8994 17.6521Z" fill="black"/>
<path d="M28.5661 20.6885C28.5661 19.3593 27.7859 18.2642 26.2957 18.0195C26.0905 18.0878 25.8718 18.1261 25.6441 18.1261C25.4163 18.1261 25.1975 18.0878 24.9924 18.0195C23.5022 18.2642 22.7224 19.3593 22.7224 20.6885H25.6441H28.5661Z" fill="black"/>
<path d="M25.644 17.6521C26.5272 17.6521 27.2434 16.9363 27.2434 16.0532V15.5994C27.2434 14.7159 26.5272 14 25.644 14C24.761 14 24.0447 14.7159 24.0447 15.5994V16.0532C24.0447 16.9363 24.761 17.6521 25.644 17.6521Z" fill="black"/>
<path d="M34.5921 31.2607L30.6734 22.1584C30.5902 21.9639 30.3989 21.8379 30.1872 21.8379H14.4484C14.2367 21.8379 14.0454 21.9639 13.9618 22.1581L10.0432 31.2607C9.97275 31.4242 9.98916 31.6126 10.0874 31.7615C10.1852 31.9101 10.3517 31.9999 10.5298 31.9999H17.914C18.5445 30.9343 19.631 30.1611 21.1562 29.911C21.5074 30.0275 21.882 30.0932 22.2719 30.0932C22.6618 30.0932 23.0364 30.0275 23.3875 29.911C24.9128 30.1611 25.9992 30.9343 26.6297 31.9999H34.1052C34.2837 31.9999 34.4498 31.9101 34.548 31.7615C34.6461 31.6126 34.6626 31.4243 34.5921 31.2607ZM25.0091 26.5451C25.0091 28.0568 23.784 29.2824 22.2718 29.2824C20.7597 29.2824 19.5346 28.0569 19.5346 26.5451V25.7682C19.5346 24.2565 20.7597 23.031 22.2718 23.031C23.7839 23.031 25.0091 24.2565 25.0091 25.7682V26.5451Z" fill="black"/>
</svg>
